<svg width="444" height="308" viewBox="0 0 444 308" fill="none" xmlns="http://www.w3.org/2000/svg">
<path d="M444 270.368H0V270.574H444V270.368Z" fill="#EBEBEB"/>
<path d="M399.51 283.655H380.258V283.861H399.51V283.655Z" fill="#EBEBEB"/>
<path d="M306.067 279.377H275.777V279.584H306.067V279.377Z" fill="#EBEBEB"/>
<path d="M391.715 275.991H352.172V276.198H391.715V275.991Z" fill="#EBEBEB"/>
<path d="M153.642 280.154H143.75V280.36H153.642V280.154Z" fill="#EBEBEB"/>
<path d="M135.836 280.154H101.746V280.36H135.836V280.154Z" fill="#EBEBEB"/>
<path d="M83.4804 276.668H58.8828V276.875H83.4804V276.668Z" fill="#EBEBEB"/>
<path d="M210.455 233.537H38.9913C37.6481 233.535 36.3606 233.037 35.4117 232.153C34.4627 231.269 33.9297 230.071 33.9297 228.822V4.67404C33.9414 3.43206 34.4795 2.24451 35.4272 1.36936C36.375 0.494208 37.6557 0.00212759 38.9913 0H210.455C211.8 0 213.09 0.496793 214.041 1.38109C214.991 2.26538 215.526 3.46475 215.526 4.71533V228.822C215.526 230.072 214.991 231.272 214.041 232.156C213.09 233.04 211.8 233.537 210.455 233.537ZM38.9913 0.165161C37.7069 0.167349 36.476 0.643354 35.5686 1.4887C34.6613 2.33404 34.1517 3.47964 34.1517 4.67404V228.822C34.1517 230.016 34.6613 231.162 35.5686 232.007C36.476 232.852 37.7069 233.328 38.9913 233.33H210.455C211.74 233.328 212.972 232.853 213.881 232.007C214.79 231.162 215.301 230.017 215.304 228.822V4.67404C215.301 3.47888 214.79 2.3333 213.881 1.48819C212.972 0.643086 211.74 0.167344 210.455 0.165161H38.9913Z" fill="#EBEBEB"/>
<path d="M402.539 233.537H231.067C229.723 233.535 228.434 233.037 227.484 232.153C226.533 231.27 225.998 230.071 225.996 228.822V4.67404C226.01 3.4313 226.55 2.24377 227.499 1.36884C228.448 0.49392 229.73 0.00210438 231.067 0H402.539C403.873 0.00429789 405.152 0.497339 406.098 1.37226C407.043 2.24718 407.58 3.43348 407.592 4.67404V228.822C407.592 230.069 407.06 231.266 406.113 232.15C405.166 233.034 403.881 233.533 402.539 233.537ZM231.067 0.165161C229.781 0.167344 228.55 0.643086 227.641 1.48819C226.732 2.3333 226.22 3.47888 226.218 4.67404V228.822C226.22 230.017 226.732 231.162 227.641 232.007C228.55 232.853 229.781 233.328 231.067 233.33H402.539C403.825 233.328 405.056 232.853 405.965 232.007C406.874 231.162 407.385 230.017 407.388 228.822V4.67404C407.385 3.47888 406.874 2.3333 405.965 1.48819C405.056 0.643086 403.825 0.167344 402.539 0.165161H231.067Z" fill="#EBEBEB"/>
<path d="M191.868 120.468L192.268 109.617L185.111 107.437C184.803 103.76 184.161 100.113 183.193 96.5365L189.266 92.4075L185.146 82.2171L177.634 82.7786C175.852 79.4954 173.773 76.3597 171.418 73.4058L175.307 67.3691L167.315 59.4332L160.602 62.629C157.583 60.2293 154.358 58.064 150.958 56.1547L152.041 49.218L141.385 44.7256L136.501 50.0438C132.734 48.923 128.872 48.0943 124.957 47.5664L123.181 40.7701L111.478 40.3984L109.169 47.0627C105.218 47.3515 101.301 47.9454 97.4561 48.8381L92.9451 43.2227L81.9872 47.0296L82.591 54.0159C79.0624 55.6975 75.691 57.6505 72.5122 59.8543L65.9765 56.1547L57.4073 63.587L60.8439 69.8631C58.2628 72.6563 55.9454 75.6513 53.9175 78.8148L46.4672 77.7742L41.6009 87.6839L47.3552 92.2175C46.1414 95.7193 45.2501 99.3107 44.6912 102.953L37.2941 104.679L36.8945 115.53L44.0873 117.71C44.3849 121.385 45.0236 125.03 45.9965 128.602L39.9226 132.731L44.0518 142.93L51.5643 142.368C53.3409 145.654 55.4207 148.79 57.7803 151.741L53.882 157.778L61.874 165.714L68.5872 162.518C71.5981 164.917 74.8178 167.08 78.2132 168.984L77.0943 175.913L87.7503 180.413L92.6609 175.095C96.4286 176.226 100.289 177.068 104.205 177.614L105.981 184.41L117.685 184.782L119.994 178.117C123.946 177.825 127.867 177.231 131.715 176.342L136.155 181.957L147.113 178.15L146.545 171.164C150.067 169.472 153.437 167.52 156.624 165.326L163.079 168.943L171.648 161.511L168.212 155.234C170.794 152.442 173.111 149.447 175.138 146.283L182.589 147.323L187.455 137.414L181.701 132.872C182.935 129.373 183.841 125.781 184.409 122.136L191.868 120.468ZM113.023 155.623C103.866 155.335 95.006 152.528 87.5645 147.557C80.123 142.586 74.434 135.675 71.2172 127.696C68.0003 119.718 67.4001 111.032 69.4925 102.737C71.5849 94.4412 76.2758 86.9093 82.972 81.0935C89.6681 75.2777 98.0686 71.4395 107.111 70.0642C116.153 68.689 125.431 69.8386 133.77 73.3676C142.11 76.8965 149.136 82.6464 153.962 89.8897C158.787 97.1331 161.193 105.544 160.877 114.06C160.456 125.472 155.178 136.262 146.204 144.056C137.23 151.85 125.295 156.01 113.023 155.623Z" fill="#EBEBEB"/>
<path d="M391.606 84.579L394.545 82.0272L393.382 79.8719C394.269 78.9061 395.069 77.873 395.771 76.7834L398.346 77.1385L400.007 73.7197L398.035 72.1589C398.46 70.9501 398.772 69.7096 398.968 68.451L401.498 67.8647L401.623 64.1156L399.154 63.3724C399.046 62.1026 398.826 60.8432 398.497 59.6067L400.584 58.1615L399.163 54.6519L396.579 54.8418C395.956 53.7099 395.234 52.6272 394.421 51.6047L395.762 49.5402L393 46.7985L390.691 47.8968C389.651 47.0735 388.541 46.3305 387.37 45.6754L387.743 43.2806L384.076 41.7198L382.389 43.5613C381.086 43.1842 379.753 42.908 378.402 42.7355L377.771 40.3903L373.74 40.2499L372.931 42.5621C371.571 42.6588 370.223 42.8632 368.9 43.1732L367.355 41.2326L363.572 42.5456L363.785 44.957C362.564 45.5308 361.4 46.2022 360.304 46.9637L358.066 45.7167L355.118 48.2684L356.264 50.3742C355.37 51.3372 354.568 52.3706 353.866 53.4627L351.3 53.1076L349.63 56.5264L351.611 58.0955C351.2 59.3025 350.903 60.5403 350.723 61.7951L348.183 62.3814L348.059 66.1305L350.536 66.8737C350.637 68.1438 350.854 69.4035 351.184 70.6394L349.089 72.0763L350.509 75.586L353.102 75.4043C353.726 76.5362 354.447 77.6189 355.26 78.6414L353.919 80.7059L356.681 83.4476L358.99 82.3493C360.028 83.1753 361.139 83.9184 362.311 84.5707L361.929 86.9573L365.605 88.518L367.293 86.6848C368.596 87.058 369.929 87.3341 371.28 87.5106L371.91 89.8558L375.942 89.9962L376.75 87.684C378.11 87.5878 379.459 87.3834 380.781 87.0729L382.326 89.0135L386.109 87.7005L385.905 85.2891C387.122 84.7145 388.284 84.0431 389.377 83.2825L391.606 84.579ZM370.632 68.7813C369.856 68.0086 369.345 67.0394 369.162 65.9962C368.979 64.9531 369.132 63.8829 369.604 62.921C370.075 61.9592 370.842 61.1489 371.808 60.5927C372.775 60.0365 373.897 59.7593 375.033 59.7963C376.169 59.8333 377.267 60.1827 378.19 60.8004C379.112 61.4181 379.816 62.2763 380.214 63.2665C380.612 64.2566 380.685 65.3342 380.424 66.3629C380.163 67.3916 379.58 68.3252 378.748 69.0456C378.196 69.5296 377.546 69.9069 376.836 70.1558C376.127 70.4047 375.371 70.5202 374.613 70.4957C373.855 70.4711 373.109 70.3069 372.42 70.0127C371.73 69.7184 371.11 69.2999 370.596 68.7813H370.632Z" fill="#EBEBEB"/>
<path d="M284.16 195.996L274.978 190.092C274.078 187.017 272.84 184.037 271.284 181.198L273.637 172.609L260.317 159.347L250.94 160.941C247.998 159.302 244.882 157.949 241.642 156.903L235.941 147.976L216.405 147.356L210.065 155.895C206.763 156.732 203.561 157.88 200.51 159.322L191.275 157.134L177.014 169.521L178.728 178.225C176.967 180.966 175.515 183.869 174.394 186.888L164.795 192.189L164.129 210.357L173.32 216.253C174.205 219.344 175.44 222.34 177.005 225.188L174.625 233.702L187.945 246.965L197.26 245.379C200.224 247.02 203.36 248.376 206.62 249.426L212.312 258.336L231.848 258.964L238.179 250.425C241.511 249.588 244.743 248.437 247.823 246.99L257.005 249.17L271.275 236.783L269.561 228.079C271.327 225.337 272.78 222.431 273.895 219.408L283.494 214.106L284.16 195.996ZM223.376 223.57C219.039 223.432 214.844 222.101 211.32 219.746C207.796 217.391 205.102 214.117 203.579 210.338C202.056 206.559 201.772 202.445 202.763 198.516C203.754 194.587 205.976 191.02 209.147 188.265C212.318 185.51 216.296 183.691 220.578 183.039C224.86 182.387 229.255 182.93 233.205 184.599C237.156 186.269 240.485 188.991 242.773 192.42C245.06 195.85 246.203 199.833 246.056 203.866C245.852 209.275 243.348 214.388 239.095 218.083C234.841 221.777 229.184 223.75 223.367 223.57H223.376Z" fill="#EBEBEB"/>
<path d="M305.072 144.516H305.01L289.63 144.029C289.318 144.023 289.013 143.945 288.743 143.8C288.473 143.656 288.246 143.45 288.084 143.203L283.938 136.72C281.702 135.96 279.54 135.026 277.473 133.929L270.84 134.994C270.53 135.047 270.212 135.026 269.914 134.934C269.616 134.841 269.348 134.68 269.135 134.466L258.63 124.011C258.409 123.795 258.252 123.529 258.175 123.239C258.097 122.95 258.101 122.647 258.186 122.36L259.864 116.24C258.824 114.257 257.974 112.193 257.324 110.072L250.638 105.777C250.378 105.612 250.168 105.388 250.027 105.127C249.886 104.865 249.818 104.575 249.829 104.283L250.353 89.9798C250.364 89.691 250.45 89.409 250.605 89.1585C250.76 88.908 250.978 88.6967 251.241 88.5429L258.23 84.6864C259.036 82.6126 260.037 80.6091 261.222 78.6993L259.997 72.481C259.94 72.1924 259.962 71.8949 260.061 71.6163C260.16 71.3377 260.334 71.0869 260.565 70.8872L271.807 61.1263C272.04 60.9205 272.325 60.7737 272.636 60.6999C272.947 60.6262 273.273 60.628 273.583 60.7051L280.19 62.2741C282.317 61.3067 284.531 60.5136 286.806 59.9041L291.423 53.6858C291.595 53.4388 291.835 53.2389 292.117 53.1068C292.4 52.9747 292.715 52.9151 293.031 52.9343L308.402 53.4298C308.714 53.4359 309.02 53.5147 309.292 53.659C309.563 53.8032 309.792 54.0083 309.956 54.2556L314.103 60.7464C316.322 61.5041 318.467 62.4379 320.514 63.5376L327.228 62.3897C327.537 62.3363 327.855 62.3568 328.153 62.4493C328.452 62.5417 328.72 62.7031 328.933 62.9183L339.438 73.3729C339.657 73.5903 339.812 73.8561 339.89 74.1451C339.968 74.4342 339.965 74.7368 339.882 75.0245L338.194 81.1602C339.235 83.1391 340.09 85.1974 340.752 87.3125L347.43 91.6066C347.689 91.7722 347.899 91.996 348.04 92.2574C348.181 92.5187 348.249 92.809 348.238 93.1013L347.714 107.396C347.703 107.686 347.617 107.969 347.462 108.221C347.307 108.473 347.089 108.686 346.826 108.841L339.837 112.698C339.026 114.767 338.025 116.767 336.845 118.676L338.07 124.903C338.127 125.19 338.105 125.487 338.006 125.764C337.907 126.041 337.733 126.291 337.502 126.489L326.189 136.258C325.956 136.463 325.67 136.609 325.359 136.681C325.048 136.753 324.722 136.75 324.413 136.671L317.841 135.11C315.7 136.073 313.475 136.866 311.19 137.48L306.617 143.69C306.452 143.935 306.225 144.139 305.956 144.283C305.686 144.427 305.383 144.507 305.072 144.516ZM290.784 140.577L304.104 140.998L308.544 135.06C308.79 134.714 309.167 134.466 309.601 134.367C312.1 133.731 314.524 132.865 316.838 131.782C317.241 131.601 317.7 131.557 318.134 131.658L324.35 133.136L334.118 124.672L333 118.701C332.913 118.284 332.995 117.852 333.23 117.487C334.549 115.442 335.636 113.275 336.472 111.021C336.613 110.613 336.91 110.266 337.306 110.047L343.993 106.364L344.446 93.9767L338.052 89.8477C337.715 89.6338 337.463 89.3235 337.333 88.9641C337.333 88.9228 337.333 88.8732 337.333 88.8237C336.649 86.5411 335.721 84.3279 334.562 82.2173C334.357 81.8394 334.306 81.405 334.42 80.9951L336.019 75.1484L326.917 66.0646L320.532 67.1546C320.086 67.2298 319.626 67.1536 319.236 66.9399C317.032 65.7109 314.7 64.6954 312.274 63.9092C312.134 63.8677 312 63.8124 311.874 63.7441C311.618 63.5955 311.405 63.3915 311.252 63.1495L307.248 56.9147L293.928 56.4853L289.488 62.4393C289.223 62.7883 288.832 63.0374 288.386 63.1412C285.913 63.7697 283.515 64.6302 281.229 65.7095C280.826 65.9007 280.362 65.9477 279.924 65.8416L273.637 64.3551L263.869 72.8196L265.041 78.7406C265.11 79.1141 265.051 79.4985 264.872 79.8389L264.783 79.9793C263.463 82.032 262.376 84.2074 261.542 86.4701C261.395 86.8581 261.106 87.1856 260.725 87.395L254.039 91.0864L253.586 103.473L259.988 107.602C260.353 107.835 260.618 108.18 260.734 108.577C261.4 110.896 262.325 113.143 263.496 115.282C263.559 115.404 263.61 115.531 263.647 115.662C263.714 115.934 263.714 116.216 263.647 116.488L262.048 122.269L271.15 131.352L277.491 130.271C277.934 130.195 278.391 130.272 278.778 130.485C280.998 131.712 283.346 132.727 285.785 133.516C286.225 133.638 286.597 133.913 286.824 134.284L290.784 140.577ZM299.016 124.911C298.687 124.911 298.359 124.911 298.03 124.911C290.648 124.79 283.616 121.963 278.465 117.044C273.314 112.126 270.46 105.514 270.525 98.6485C270.59 91.7829 273.569 85.219 278.812 80.3855C284.056 75.552 291.14 72.8402 298.523 72.8402C305.906 72.8402 312.99 75.552 318.234 80.3855C323.477 85.219 326.455 91.7829 326.52 98.6485C326.585 105.514 323.732 112.126 318.581 117.044C313.429 121.963 306.398 124.79 299.016 124.911ZM299.016 76.1146C292.565 76.218 286.419 78.687 281.916 82.9841C277.414 87.2812 274.918 93.0585 274.974 99.0582C275.03 105.058 277.632 110.794 282.213 115.019C286.795 119.243 292.986 121.613 299.438 121.613C305.889 121.613 312.08 119.243 316.662 115.019C321.244 110.794 323.845 105.058 323.901 99.0582C323.957 93.0585 321.462 87.2812 316.959 82.9841C312.456 78.687 306.31 76.218 299.859 76.1146H299.016Z" fill="#EBEBEB"/>
<path d="M340.495 41.5543L334.119 39.9688L332.414 34.0395L334.909 31.7273L337.538 36.7895L342.99 39.2421L340.495 41.5543Z" fill="#E0E0E0"/>
<path d="M340.884 37.5904C341.16 37.3339 341.378 37.0295 341.528 36.6944C341.677 36.3593 341.754 36.0001 341.754 35.6374C341.754 35.2747 341.677 34.9155 341.528 34.5804C341.378 34.2453 341.16 33.9408 340.884 33.6844C340.608 33.4279 340.281 33.2244 339.92 33.0856C339.56 32.9468 339.174 32.8754 338.784 32.8754C338.394 32.8754 338.007 32.9468 337.647 33.0856C337.287 33.2244 336.959 33.4279 336.684 33.6844L339.854 29.2581L344.098 31.2565L345.031 35.3855L340.884 37.5904Z" fill="#E0E0E0"/>
<path d="M334.402 32.2064L339.073 27.8627L345.431 29.44L347.145 35.3609L342.474 39.7047L336.107 38.1109L334.402 32.2064ZM342.883 35.7573C343.298 35.3703 343.582 34.8774 343.696 34.3408C343.811 33.8043 343.752 33.2482 343.526 32.7428C343.301 32.2375 342.92 31.8056 342.431 31.5018C341.941 31.1979 341.366 31.0357 340.778 31.0357C340.19 31.0357 339.615 31.1979 339.126 31.5018C338.637 31.8056 338.255 32.2375 338.03 32.7428C337.805 33.2482 337.746 33.8043 337.86 34.3408C337.975 34.8774 338.258 35.3703 338.674 35.7573C339.236 36.2705 339.994 36.5567 340.782 36.5536C341.57 36.5505 342.325 36.2584 342.883 35.7408V35.7573Z" fill="#F0F0F0"/>
<path d="M80.1143 199.605L83.5331 198.746L84.4478 195.567L83.1158 194.328L81.7038 197.045L78.7734 198.358L80.1143 199.605Z" fill="#E0E0E0"/>
<path d="M79.9217 197.475C79.6545 197.191 79.5133 196.823 79.5268 196.446C79.5402 196.069 79.7072 195.711 79.994 195.444C80.2808 195.178 80.6659 195.022 81.0713 195.01C81.4767 194.997 81.872 195.129 82.1772 195.377L80.4811 193.007L78.1457 194.064L77.6484 196.294L79.9217 197.475Z" fill="#E0E0E0"/>
<path d="M83.3852 194.575L80.881 192.247L77.4622 193.072L76.5742 196.252L79.034 198.605L82.4528 197.779L83.3852 194.575ZM78.8386 196.483C78.674 196.349 78.5407 196.185 78.447 196.001C78.3533 195.817 78.3013 195.617 78.294 195.414C78.2868 195.21 78.3245 195.008 78.4049 194.819C78.4853 194.629 78.6066 194.457 78.7613 194.314C78.916 194.17 79.1009 194.057 79.3044 193.982C79.5079 193.907 79.7258 193.872 79.9445 193.879C80.1632 193.886 80.3781 193.934 80.5758 194.021C80.7736 194.108 80.95 194.232 81.0941 194.385C81.3613 194.669 81.5025 195.037 81.4891 195.414C81.4756 195.791 81.3086 196.149 81.0218 196.416C80.735 196.682 80.3499 196.838 79.9445 196.85C79.5391 196.863 79.1438 196.731 78.8386 196.483Z" fill="#F0F0F0"/>
<path d="M67.8096 25.3192L70.6512 27.9618C71.0066 28.2866 71.4849 28.4686 71.9832 28.4686C72.4815 28.4686 72.9598 28.2866 73.3152 27.9618C73.6624 27.6303 73.8566 27.1858 73.8566 26.7231C73.8566 26.2604 73.6624 25.8159 73.3152 25.4844L70.4825 22.8501C70.126 22.5272 69.6481 22.3466 69.1505 22.3466C68.6529 22.3466 68.175 22.5272 67.8185 22.8501C67.4707 23.1791 67.2751 23.6216 67.2734 24.083C67.2718 24.5443 67.4642 24.988 67.8096 25.3192Z" fill="#F0F0F0"/>
<path d="M65.8113 18.7543C66.5528 18.5626 67.3383 18.5764 68.0715 18.794C68.8047 19.0116 69.4536 19.4237 69.9385 19.9795C70.4235 20.5353 70.7233 21.2106 70.8012 21.9227C70.8792 22.6347 70.7318 23.3524 70.3773 23.9877C70.0227 24.623 69.4764 25.1481 68.8054 25.4987C68.1344 25.8492 67.3679 26.0099 66.6001 25.961C65.8322 25.9122 65.0964 25.6558 64.4831 25.2235C63.8697 24.7912 63.4054 24.2017 63.1473 23.5274C62.9834 23.0514 62.9223 22.55 62.9676 22.0519C63.013 21.5539 63.1638 21.0691 63.4114 20.6255C63.659 20.1818 63.9985 19.7881 64.4104 19.467C64.8222 19.1459 65.2983 18.9037 65.8113 18.7543Z" fill="#E0E0E0"/>
<path d="M62.7176 23.0849L63.1289 24.1497L71.5696 21.3298L71.1583 20.2651L62.7176 23.0849Z" fill="#F0F0F0"/>
<path d="M221.999 307.661C317.088 307.661 394.173 303.475 394.173 298.312C394.173 293.15 317.088 288.964 221.999 288.964C126.909 288.964 49.8242 293.15 49.8242 298.312C49.8242 303.475 126.909 307.661 221.999 307.661Z" fill="#F5F5F5"/>
<path d="M77.0086 54.2135C76.1206 50.5717 76.5114 47.5162 78.1986 45.0223C79.8858 42.5284 82.6386 40.8933 86.5546 40.0675C90.4707 39.2417 93.854 39.572 96.5002 41.108C99.1465 42.644 100.94 45.237 101.828 48.7879C102.455 50.9796 102.507 53.2793 101.979 55.4934C101.463 57.3323 100.372 58.9876 98.8445 60.2501C97.0302 61.6706 94.8525 62.632 92.522 63.0413C90.2374 63.6053 87.8453 63.6816 85.5246 63.2642C83.5073 62.8083 81.6827 61.8018 80.2854 60.3739C78.616 58.6327 77.4838 56.5041 77.0086 54.2135ZM84.4146 52.6775C84.9651 54.9236 85.8087 56.4431 86.9454 57.2359C87.5321 57.5997 88.1919 57.8494 88.8851 57.97C89.5782 58.0907 90.2905 58.0797 90.979 57.9377C91.6675 57.7958 92.318 57.5258 92.8914 57.1441C93.4648 56.7624 93.9493 56.2767 94.3158 55.7164C94.9551 54.5686 94.964 52.7435 94.3602 50.2579C93.8451 48.1603 93.0133 46.7234 91.8649 45.9472C91.2866 45.5612 90.6227 45.3008 89.9219 45.185C89.2212 45.0693 88.5014 45.1011 87.8156 45.2783C87.1292 45.3978 86.4809 45.6606 85.9195 46.0468C85.3581 46.433 84.8982 46.9326 84.5744 47.508C83.9173 48.7219 83.8551 50.3735 84.4146 52.6775Z" fill="#293241"/>
<path d="M105.311 51.4882C104.995 50.3628 104.939 49.1881 105.145 48.0411C105.352 46.8941 105.817 45.8006 106.509 44.8322C107.286 43.8034 108.273 42.9273 109.414 42.2541C110.556 41.581 111.829 41.1241 113.16 40.9096C116.635 40.1774 119.489 40.56 121.721 42.0575C123.599 43.4115 124.876 45.3609 125.308 47.534C125.741 49.7072 125.298 51.9524 124.065 53.8417C122.68 55.8071 120.424 57.1174 117.299 57.7725C114.89 58.3986 112.321 58.2054 110.052 57.2275C108.839 56.6761 107.78 55.8711 106.957 54.8753C106.135 53.8796 105.571 52.7203 105.311 51.4882ZM111.979 50.0595C112.159 51.2135 112.765 52.2733 113.693 53.0572C114.061 53.3162 114.485 53.4976 114.936 53.5887C115.387 53.6799 115.854 53.6787 116.305 53.5852C116.755 53.4917 117.178 53.3081 117.544 53.0472C117.911 52.7864 118.212 52.4544 118.426 52.0745C118.891 50.9653 118.935 49.7417 118.551 48.6061C118.364 47.4792 117.765 46.4467 116.855 45.6828C116.501 45.4165 116.087 45.2295 115.643 45.1364C115.2 45.0433 114.739 45.0466 114.297 45.146C113.836 45.2348 113.403 45.42 113.031 45.6876C112.659 45.9551 112.357 46.298 112.148 46.6903C111.67 47.7604 111.61 48.9526 111.979 50.0595Z" fill="#293241"/>
<path d="M131.94 60.7535L126.496 38.4569L132.712 37.1356L133.298 39.5222C133.737 38.5704 134.374 37.7087 135.172 36.9869C136.048 36.2954 137.094 35.816 138.218 35.5913C139.256 35.3287 140.348 35.3136 141.394 35.5474C142.441 35.7813 143.406 36.2565 144.203 36.9291C145.958 38.4549 147.148 40.4582 147.604 42.6519C148.261 45.3358 148.066 47.5324 147.036 49.2584C146.546 50.0836 145.869 50.7998 145.051 51.3573C144.234 51.9149 143.296 52.3004 142.303 52.4872C141.345 52.6983 140.353 52.7347 139.381 52.5946C138.449 52.4427 137.56 52.1138 136.77 51.6284L138.653 59.3331L131.94 60.7535ZM135.145 45.1789C135.308 46.2103 135.863 47.1534 136.708 47.838C137.047 48.0794 137.441 48.2464 137.859 48.3264C138.277 48.4065 138.709 48.3976 139.123 48.3004C139.508 48.2287 139.869 48.0741 140.178 47.8489C140.486 47.6237 140.733 47.3343 140.899 47.0039C141.277 45.9704 141.277 44.8498 140.899 43.8163C140.737 42.7798 140.202 41.825 139.381 41.1077C139.076 40.8725 138.718 40.7055 138.333 40.6196C137.948 40.5337 137.547 40.5312 137.161 40.6122C136.753 40.6941 136.37 40.8607 136.041 41.0995C135.712 41.3383 135.445 41.6432 135.261 41.9913C134.826 43.0092 134.785 44.136 135.145 45.1789Z" fill="#293241"/>
<path d="M150.455 45.6663L156.92 43.6926C157.264 44.2738 157.799 44.737 158.447 45.0139C159.145 45.2018 159.883 45.2167 160.588 45.0574C161.294 44.8981 161.943 44.5699 162.47 44.1055C162.617 43.9598 162.724 43.7829 162.781 43.5901C162.839 43.3972 162.844 43.1943 162.798 42.9989C162.745 42.7754 162.621 42.5718 162.442 42.4143C162.263 42.2568 162.038 42.1527 161.795 42.1153C160.792 42.0129 159.779 42.0129 158.776 42.1153C157.092 42.2485 155.398 42.2485 153.714 42.1153C152.728 41.9823 151.804 41.5897 151.05 40.984C150.246 40.3368 149.691 39.4635 149.468 38.4965C149.245 37.5294 149.367 36.5212 149.816 35.6245C150.334 34.665 151.138 33.8649 152.134 33.3205C153.55 32.5722 155.089 32.0449 156.689 31.7598C158.216 31.3743 159.795 31.1962 161.378 31.2312C162.371 31.2907 163.334 31.5742 164.184 32.057C165.089 32.6249 165.857 33.3617 166.439 34.2207L160.223 36.1283C159.991 35.698 159.605 35.3564 159.131 35.1621C158.483 34.9466 157.781 34.9178 157.115 35.0795C156.527 35.1557 155.982 35.4079 155.561 35.7979C155.428 35.9309 155.331 36.0922 155.28 36.2678C155.229 36.4434 155.225 36.628 155.268 36.8054C155.316 37.0007 155.427 37.1778 155.585 37.3134C155.744 37.4491 155.943 37.5368 156.156 37.5652C157.149 37.6723 158.153 37.6529 159.14 37.5073C160.852 37.2766 162.59 37.2544 164.308 37.4413C165.389 37.5833 166.402 38.0168 167.221 38.6882C167.961 39.3127 168.476 40.1347 168.695 41.0418C168.922 42.0144 168.839 43.0277 168.455 43.9569C167.985 45.0569 167.168 45.9985 166.111 46.6573C164.553 47.6041 162.808 48.2526 160.978 48.5649C157.811 49.2365 155.443 49.2943 153.874 48.7383C152.345 48.1706 151.118 47.0675 150.455 45.6663Z" fill="#293241"/>
<path d="M172.141 25.2441H179.431V30.4467L178.09 40.9096H173.579L172.141 30.4632V25.2441ZM172.496 42.4869H179.298V48.0858H172.496V42.4869Z" fill="#293241"/>
<path d="M114.266 96.2717H114.106C110.11 94.8266 107.722 93.4227 106.479 91.7298C105.505 91.9013 104.499 91.7738 103.61 91.3665C102.57 90.8928 101.706 90.139 101.133 89.2029C100.831 89.418 100.476 89.5589 100.101 89.6123C99.7248 89.6657 99.3407 89.63 98.9839 89.5084C97.8895 89.1276 96.9556 88.43 96.3199 87.5182C95.9222 87.7937 95.4279 87.9204 94.9346 87.8733C92.2706 87.6751 88.7186 82.7864 88.4611 77.5838C88.4584 77.474 88.5012 77.3675 88.5804 77.2861C88.6597 77.2047 88.7695 77.1546 88.8873 77.1462C88.9456 77.144 89.0038 77.1525 89.0586 77.1712C89.1134 77.1899 89.1637 77.2185 89.2065 77.2553C89.2494 77.2921 89.2841 77.3365 89.3086 77.3857C89.333 77.435 89.3468 77.4883 89.3491 77.5425C89.5977 82.4974 92.9987 86.8989 95.0145 87.0475C95.1612 87.0629 95.3096 87.051 95.4514 87.0128C95.5931 86.9745 95.7253 86.9105 95.8403 86.8246C95.1458 85.6472 94.7097 84.3533 94.5573 83.0179C94.4048 81.6825 94.5391 80.3322 94.9523 79.0455C95.716 76.5681 96.3909 75.5937 97.2079 75.7423C98.7352 76.0974 98.531 81.5229 97.7229 85.0656C97.6004 85.7045 97.3472 86.3157 96.977 86.8659C97.5005 87.6822 98.2907 88.3216 99.2325 88.6909C99.4835 88.7797 99.7567 88.7998 100.02 88.7485C100.282 88.6973 100.524 88.577 100.715 88.4018C100.023 86.808 99.8275 84.6279 100.822 81.8532C102.065 78.1949 102.598 78.0958 102.873 78.0298C102.977 78.0095 103.084 78.0157 103.184 78.0477C103.284 78.0797 103.373 78.1363 103.442 78.2115C104.267 79.0786 103.282 84.7601 102.252 87.5678C102.131 87.9057 101.964 88.2277 101.754 88.5257C102.231 89.4189 103.007 90.1436 103.966 90.5902C104.594 90.8745 105.293 90.9971 105.99 90.9453C105.91 90.7884 105.839 90.6315 105.768 90.4663C105.067 88.6909 105.413 86.6511 106.825 84.2068C107.757 82.5965 108.521 81.8367 109.231 81.8367C109.42 81.8391 109.604 81.8916 109.761 81.9883C109.919 82.0849 110.043 82.2214 110.119 82.3817C110.892 83.7113 110.332 88.0963 108.805 90.2764C108.447 90.7762 107.95 91.1759 107.367 91.4325C108.556 92.8859 110.821 94.1659 114.471 95.4707C114.525 95.489 114.576 95.5174 114.618 95.5541C114.661 95.5908 114.695 95.6351 114.719 95.6844C114.743 95.7336 114.757 95.7869 114.758 95.841C114.76 95.8951 114.749 95.9489 114.728 95.9992C114.694 96.0852 114.63 96.1584 114.546 96.2076C114.463 96.2568 114.365 96.2793 114.266 96.2717ZM109.222 82.6708C109.222 82.6708 108.716 82.6708 107.597 84.6114C106.31 86.8246 105.981 88.6496 106.594 90.1856C106.668 90.3758 106.757 90.5607 106.86 90.7389C107.341 90.554 107.75 90.2371 108.033 89.8305C109.276 88.0633 109.871 84.4297 109.409 83.0094C109.347 82.7203 109.222 82.6708 109.222 82.6708ZM102.847 79.1942C102.366 80.1344 101.968 81.1092 101.657 82.1092C100.976 83.8423 100.858 85.7235 101.319 87.5182L101.399 87.3035C102.332 84.686 102.829 81.9513 102.873 79.1942H102.847ZM97.0036 76.5929C96.8526 76.7168 96.4175 77.237 95.8048 79.252C95.0801 81.5133 95.3087 83.9464 96.4442 86.0566C96.6264 85.6874 96.7605 85.2992 96.8438 84.9004C97.7939 80.8458 97.5275 77.1792 97.0302 76.5929H97.0036Z" fill="#293241"/>
<path d="M148.027 139.56C146.607 139.573 145.209 139.234 143.977 138.578C143.876 138.521 143.802 138.429 143.772 138.323C143.743 138.216 143.759 138.103 143.817 138.008C143.847 137.961 143.886 137.921 143.932 137.888C143.978 137.856 144.031 137.832 144.088 137.819C144.144 137.806 144.202 137.804 144.26 137.812C144.317 137.82 144.372 137.839 144.421 137.867C147.591 139.593 151.685 138.388 152.529 137.124C152.59 137.045 152.633 136.955 152.656 136.86C152.679 136.765 152.681 136.667 152.662 136.571C151.041 136.657 149.436 136.233 148.106 135.365C145.842 134.052 145.664 133.656 145.682 133.342C145.687 133.252 145.717 133.164 145.77 133.089C145.823 133.013 145.897 132.952 145.984 132.913C146.872 132.5 150.877 134.209 152.546 135.233C152.747 135.357 152.931 135.501 153.097 135.662C153.753 135.524 154.344 135.194 154.784 134.721C155.032 134.45 155.211 134.132 155.308 133.788H155.131C153.71 133.92 152.289 133.35 150.77 132.045C149.723 131.154 149.323 130.534 149.456 130.047C149.497 129.91 149.578 129.787 149.692 129.692C149.805 129.597 149.945 129.534 150.096 129.51C151.321 129.221 154.358 130.427 155.592 131.69C155.868 131.965 156.063 132.3 156.161 132.665C157.324 132.161 158.549 131.013 159.997 129.139C160.03 129.094 160.073 129.056 160.123 129.027C160.172 128.998 160.228 128.978 160.285 128.969C160.343 128.959 160.402 128.961 160.46 128.973C160.517 128.985 160.571 129.008 160.618 129.039C160.714 129.104 160.778 129.201 160.798 129.308C160.818 129.416 160.792 129.527 160.725 129.618C159.047 131.798 157.644 133.036 156.241 133.54C156.168 134.15 155.899 134.726 155.468 135.192C154.956 135.745 154.284 136.149 153.532 136.356C153.574 136.553 153.574 136.756 153.532 136.953C153.489 137.15 153.405 137.337 153.284 137.504C152.538 138.685 150.389 139.56 148.027 139.56ZM147.236 133.829C147.538 134.036 147.964 134.308 148.577 134.655C149.532 135.254 150.629 135.628 151.774 135.745C150.345 134.948 148.822 134.305 147.236 133.829ZM150.335 130.319C150.591 130.766 150.945 131.157 151.374 131.467C152.689 132.599 153.887 133.119 155.042 132.987H155.326C155.263 132.73 155.128 132.494 154.935 132.301C153.692 130.997 150.957 130.187 150.335 130.319Z" fill="#293241"/>
<path d="M159.785 138.429L145.95 140.766L133.385 76.9978L106.692 81.5067L63.1797 153.352L67.8506 177.06L123.661 167.638L127.48 187.028L154.173 182.502L150.355 163.113L164.19 160.775L159.785 138.429ZM89.7664 150.296L112.854 112.664L119.292 145.316L89.7664 150.296Z" fill="#6EBBC5"/>
<path d="M271.221 72.6702C270.801 68.6615 269.846 64.717 268.379 60.9273C266.87 57.2972 264.774 53.9026 262.163 50.8608C259.073 47.3219 255.234 44.4101 250.886 42.3055C246.15 39.8886 239.868 38.2067 232.042 37.2598C215.792 35.2889 203.129 37.97 194.054 45.3031C184.978 52.6362 178.999 66.6749 176.116 87.419C174.965 95.1717 174.667 103.013 175.228 110.822C175.82 117.979 177.235 123.741 179.473 128.106C182.32 133.994 186.812 139.064 192.482 142.789C198.088 146.45 205.784 148.87 215.57 150.048C232.963 152.156 245.859 149.049 254.26 140.725C262.66 132.401 268.225 118.334 270.954 98.5261C272.168 89.9492 272.257 81.2671 271.221 72.6702Z" fill="#6EBBC5"/>
<path d="M223.572 141.567C221.432 141.501 219.132 141.319 216.814 141.039C208.68 140.056 202.393 138.14 198.113 135.349C193.844 132.546 190.47 128.723 188.345 124.283L188.301 124.192C186.596 120.889 185.477 116.141 184.988 110.154C184.471 102.962 184.745 95.74 185.805 88.6001C188.975 65.7089 195.52 56.1543 200.448 52.174C206.203 47.5329 213.973 45.4354 224.185 45.7657C226.28 45.8318 228.5 46.0052 230.782 46.2777C237.336 47.1035 242.531 48.4248 246.207 50.2911C249.384 51.8125 252.196 53.9166 254.474 56.4764C256.468 58.7884 258.07 61.3698 259.225 64.1316C260.405 67.2111 261.168 70.415 261.498 73.6696C262.445 81.5558 262.359 89.5198 261.241 97.3866C258.781 115.174 254.021 127.677 247.104 134.548C241.971 139.635 234.272 141.98 223.563 141.6L223.572 141.567Z" fill="#293241"/>
<path d="M240.946 72.9101L241.062 69.7803L238.993 69.1527C238.905 68.0941 238.72 67.0443 238.442 66.0146L240.218 64.8089L239.028 61.8691L236.861 62.0343C236.352 61.0894 235.758 60.1861 235.085 59.3339L236.204 57.5914L233.896 55.304L231.96 56.2289C231.093 55.5363 230.167 54.9121 229.189 54.3626L229.5 52.3641L226.427 51.0676L225.024 52.6036C223.938 52.2762 222.824 52.0331 221.694 51.8769L221.17 49.9197L217.796 49.8124L217.13 51.7282C215.992 51.8129 214.864 51.9842 213.756 52.2402L212.45 50.5886L209.289 51.6869L209.467 53.7019C208.451 54.1761 207.48 54.7286 206.563 55.3535L204.698 54.3047L202.229 56.4436L203.224 58.2521C202.477 59.0571 201.809 59.922 201.226 60.8368L199.077 60.5313L197.674 63.3886L199.335 64.6933C198.974 65.7044 198.713 66.7436 198.553 67.7984L196.44 68.2938L196.324 71.4154L198.393 72.043C198.48 73.1044 198.664 74.157 198.944 75.1893L197.168 76.3867L198.358 79.3266L200.524 79.1614C201.029 80.1089 201.623 81.0126 202.3 81.8618L201.173 83.6042L203.482 85.8917L205.417 84.975C206.284 85.6649 207.21 86.2865 208.188 86.8331L207.868 88.8316L210.941 90.1281L212.353 88.6003C213.442 88.9259 214.559 89.1662 215.692 89.3188L216.215 91.2842L219.581 91.3915L220.247 89.4674C221.388 89.3868 222.52 89.2155 223.63 88.9554L224.918 90.607L228.079 89.5087L227.91 87.502C228.923 87.0217 229.893 86.4695 230.814 85.8504L232.679 86.8909L235.148 84.7521L234.162 82.9436C234.906 82.1413 235.572 81.2791 236.151 80.3671L238.3 80.6644L239.703 77.8071L238.051 76.5023C238.405 75.4928 238.663 74.4566 238.824 73.4056L240.946 72.9101ZM218.213 83.0427C215.583 82.9533 213.041 82.1413 210.906 80.7093C208.772 79.2772 207.142 77.2893 206.221 74.9963C205.301 72.7033 205.131 70.2082 205.734 67.8257C206.337 65.4433 207.686 63.2804 209.609 61.61C211.533 59.9396 213.946 58.8367 216.543 58.4403C219.14 58.044 221.805 58.372 224.202 59.3831C226.599 60.3941 228.62 62.0428 230.01 64.1211C231.4 66.1993 232.097 68.614 232.013 71.0603C231.957 72.6908 231.555 74.295 230.83 75.7807C230.106 77.2664 229.073 78.6044 227.79 79.7178C226.508 80.8311 225.002 81.698 223.359 82.2686C221.715 82.8392 219.967 83.1022 218.213 83.0427Z" fill="#6EBBC5"/>
<path opacity="0.3" d="M254.962 130.369L255.211 128.255L253.843 127.743C253.841 127.024 253.776 126.306 253.648 125.596L254.882 124.861L254.252 122.822H252.778C252.486 122.158 252.133 121.52 251.721 120.914L252.556 119.791L251.135 118.139L249.776 118.668C249.226 118.161 248.632 117.697 248 117.28L248.329 115.943L246.331 114.919L245.283 115.901C244.569 115.628 243.833 115.41 243.081 115.249L242.832 113.903L240.568 113.663L240.008 114.935C239.237 114.939 238.467 115.005 237.708 115.133L236.918 113.961L234.725 114.564V115.934C234.011 116.208 233.325 116.54 232.673 116.925L231.466 116.1L229.69 117.421L230.258 118.684C229.717 119.197 229.221 119.749 228.775 120.336L227.337 120.039L226.244 121.897L227.292 122.863C226.994 123.528 226.76 124.216 226.591 124.919L225.134 125.142L224.895 127.248L226.253 127.776C226.254 128.491 226.322 129.204 226.457 129.907L225.205 130.642L225.845 132.682H227.328C227.624 133.342 227.981 133.977 228.393 134.581L227.505 135.704L228.926 137.356L230.302 136.819C230.849 137.327 231.443 137.789 232.078 138.198L231.768 139.561L233.766 140.576L234.805 139.61C235.519 139.877 236.256 140.089 237.007 140.246L237.264 141.6L239.529 141.832L240.079 140.568C240.865 140.567 241.649 140.506 242.424 140.386L243.214 141.551L245.398 140.956V139.585C246.112 139.306 246.801 138.975 247.459 138.594L248.649 139.42L250.425 138.091L249.847 136.827C250.394 136.315 250.896 135.763 251.348 135.176L252.778 135.473L253.879 133.615L252.831 132.657C253.117 131.992 253.345 131.307 253.515 130.609L254.962 130.369ZM243.534 129.544C243.158 130.183 242.587 130.704 241.892 131.042C241.198 131.379 240.411 131.517 239.632 131.439C238.853 131.361 238.117 131.069 237.516 130.601C236.915 130.134 236.477 129.511 236.257 128.811C236.037 128.112 236.045 127.368 236.28 126.673C236.515 125.978 236.967 125.363 237.577 124.907C238.188 124.45 238.93 124.172 239.711 124.108C240.491 124.044 241.275 124.197 241.962 124.548C242.881 125.018 243.561 125.808 243.856 126.744C244.15 127.68 244.035 128.687 243.534 129.544Z" fill="#6EBBC5"/>
<path d="M267.544 94.6778L264.88 92.9767C264.618 92.0923 264.261 91.2347 263.815 90.4167L264.49 87.9393L260.653 84.1158L257.989 84.5782C257.144 84.1103 256.252 83.7204 255.325 83.4139L253.683 80.8374L248.062 80.6639L246.232 83.1413C245.28 83.3814 244.357 83.7136 243.479 84.1323L240.815 83.4964L236.704 87.0722L237.201 89.5496C236.691 90.3319 236.271 91.1624 235.949 92.027L233.188 93.5547L232.992 98.782L235.656 100.483C235.914 101.374 236.271 102.238 236.722 103.06L236.047 105.537L239.883 109.361L242.547 108.906C243.393 109.374 244.285 109.763 245.211 110.071L246.845 112.639L252.475 112.821L254.295 110.343C255.255 110.101 256.187 109.769 257.075 109.352L259.739 109.98L263.85 106.412L263.362 103.935C263.866 103.15 264.286 102.32 264.614 101.458L267.376 99.9299L267.544 94.6778ZM250.024 102.622C248.774 102.582 247.565 102.198 246.55 101.52C245.535 100.841 244.759 99.897 244.32 98.8079C243.881 97.7188 243.8 96.5332 244.086 95.4011C244.372 94.269 245.013 93.2411 245.927 92.4476C246.841 91.654 247.988 91.1304 249.222 90.943C250.456 90.7555 251.722 90.9126 252.86 91.3944C253.999 91.8762 254.957 92.6611 255.616 93.6498C256.274 94.6384 256.603 95.7865 256.56 96.9488C256.5 98.5063 255.778 99.978 254.553 101.041C253.328 102.105 251.699 102.673 250.024 102.622Z" fill="white"/>
<path d="M286.821 52.95L287.282 51.9178C287.596 51.7532 287.894 51.5625 288.17 51.348H289.2L290.408 49.6964L290.017 48.8128C290.167 48.5184 290.286 48.2115 290.373 47.8961L291.261 47.1364L290.888 45.1957L289.769 44.7663C289.593 44.4735 289.388 44.1969 289.156 43.9405V42.9826L287.424 41.8595L286.465 42.2311C286.115 42.1163 285.751 42.0387 285.382 41.9999L284.565 41.1741L282.487 41.5209L282.017 42.5614C281.687 42.7203 281.375 42.9083 281.084 43.123H280.063L278.855 44.7746L279.246 45.6582C279.127 45.9853 279.043 46.3229 278.997 46.6657L278.109 47.4337L278.482 49.366L279.601 49.7955C279.771 50.0898 279.973 50.3666 280.205 50.6213V51.5709L281.981 52.694L282.931 52.3307C283.287 52.4381 283.652 52.5127 284.023 52.5536L284.84 53.3794L286.821 52.95ZM282.381 47.5988C282.297 47.1679 282.352 46.7236 282.54 46.322C282.727 45.9204 283.039 45.5796 283.435 45.3427C283.831 45.1058 284.294 44.9836 284.765 44.9913C285.235 44.9991 285.693 45.1366 286.08 45.3864C286.467 45.6362 286.765 45.9871 286.937 46.3946C287.109 46.8022 287.148 47.2481 287.047 47.6759C286.947 48.1038 286.713 48.4943 286.373 48.7981C286.034 49.1019 285.606 49.3053 285.142 49.3826C284.522 49.4838 283.884 49.3531 283.367 49.0191C282.85 48.6851 282.495 48.1746 282.381 47.5988Z" fill="#6EBBC5"/>
<path d="M262.5 47.4754L261.816 46.9387C263.282 45.2486 265.093 43.8452 267.144 42.8097L267.562 43.5364C265.61 44.5244 263.89 45.8633 262.5 47.4754Z" fill="#6EBBC5"/>
<path d="M269.585 42.7763L269.238 42.0166C272.517 40.6914 276.103 40.1574 279.663 40.4641L279.575 41.2899C276.163 40.9908 272.726 41.5023 269.585 42.7763Z" fill="#6EBBC5"/>
<path d="M267.908 48.4908L267.18 48.0284C269.319 45.3417 272.433 43.467 275.944 42.7515L276.113 43.5773C272.831 44.2437 269.918 45.9883 267.908 48.4908Z" fill="#6EBBC5"/>
<path d="M208.982 127.999C208.861 127.996 208.746 127.948 208.662 127.867L206.806 126.083C205.86 126.003 204.924 125.843 204.009 125.604L201.105 126.793C201.041 126.826 200.969 126.843 200.896 126.843C200.824 126.843 200.752 126.826 200.688 126.793L195.822 123.796C195.759 123.757 195.708 123.704 195.674 123.642C195.639 123.58 195.623 123.511 195.626 123.441V120.501C195.032 119.81 194.509 119.069 194.063 118.288L191.568 117.396C191.498 117.371 191.436 117.329 191.388 117.276C191.34 117.223 191.307 117.159 191.293 117.09L190.138 111.772C190.123 111.704 190.126 111.634 190.148 111.567C190.17 111.501 190.209 111.441 190.263 111.392L192.181 109.666C192.272 108.787 192.445 107.917 192.696 107.065L191.417 104.365C191.382 104.305 191.364 104.238 191.364 104.171C191.364 104.103 191.382 104.036 191.417 103.977L194.64 99.4511C194.68 99.3915 194.737 99.3432 194.804 99.3112C194.872 99.2792 194.947 99.2648 195.022 99.2695L198.184 99.3107C198.924 98.7556 199.721 98.2689 200.563 97.8573L201.531 95.5368C201.557 95.4724 201.6 95.4152 201.656 95.3704C201.712 95.3256 201.779 95.2948 201.851 95.2808L207.57 94.2073C207.643 94.1923 207.719 94.195 207.79 94.2153C207.862 94.2355 207.927 94.2726 207.978 94.3229L209.834 96.1066C210.783 96.1871 211.722 96.3474 212.64 96.5856L215.535 95.3964C215.601 95.3639 215.674 95.3469 215.748 95.3469C215.823 95.3469 215.896 95.3639 215.961 95.3964L220.819 98.3941C220.88 98.4342 220.931 98.4873 220.966 98.549C221.002 98.6107 221.021 98.6793 221.023 98.7492L220.97 101.689C221.566 102.38 222.093 103.121 222.541 103.902L225.028 104.802C225.097 104.826 225.159 104.866 225.207 104.918C225.255 104.97 225.288 105.032 225.303 105.1L226.466 110.418C226.48 110.486 226.476 110.556 226.454 110.622C226.433 110.688 226.394 110.748 226.342 110.798L224.415 112.532C224.326 113.409 224.154 114.276 223.9 115.125L225.179 117.825C225.214 117.886 225.232 117.954 225.232 118.023C225.232 118.093 225.214 118.161 225.179 118.222L222 122.706C221.958 122.762 221.902 122.808 221.837 122.839C221.772 122.871 221.7 122.887 221.627 122.887L218.457 122.846C217.713 123.394 216.92 123.88 216.086 124.3L215.118 126.62C215.091 126.685 215.047 126.743 214.99 126.788C214.932 126.833 214.863 126.863 214.789 126.876L209.07 127.999H208.982ZM203.982 124.696C204.023 124.688 204.066 124.688 204.107 124.696C205.066 124.956 206.05 125.124 207.046 125.2C207.152 125.211 207.252 125.255 207.33 125.323L209.106 127.058L214.345 126.075L215.286 123.812C215.33 123.721 215.405 123.645 215.5 123.598C216.387 123.171 217.223 122.659 217.995 122.07C218.076 122.006 218.181 121.973 218.288 121.979L221.369 122.02L224.317 117.891L223.074 115.265C223.039 115.175 223.039 115.075 223.074 114.984C223.349 114.092 223.53 113.176 223.616 112.251C223.625 112.151 223.672 112.057 223.749 111.987L225.614 110.335L224.557 105.463L222.133 104.588C222.029 104.552 221.943 104.481 221.893 104.389C221.432 103.566 220.882 102.788 220.25 102.069C220.187 101.993 220.153 101.9 220.153 101.805V98.9309L215.713 96.1892L212.898 97.3453C212.797 97.3787 212.687 97.3787 212.587 97.3453C211.625 97.0869 210.637 96.9181 209.639 96.8416C209.532 96.8299 209.432 96.7864 209.355 96.7177L207.579 94.9835L202.339 95.9745L201.407 98.2702C201.37 98.3649 201.297 98.444 201.203 98.4932C200.312 98.9187 199.473 99.4308 198.699 100.021C198.66 100.053 198.615 100.078 198.567 100.093C198.518 100.109 198.466 100.115 198.414 100.112L195.333 100.07L192.376 104.199L193.619 106.826C193.648 106.881 193.662 106.942 193.662 107.003C193.662 107.065 193.648 107.125 193.619 107.181C193.356 108.052 193.184 108.946 193.104 109.848C193.096 109.948 193.049 110.042 192.971 110.112L191.106 111.764L192.172 116.636L194.587 117.511C194.695 117.553 194.783 117.629 194.836 117.726C195.294 118.544 195.841 119.316 196.47 120.03C196.536 120.104 196.57 120.198 196.567 120.294V123.168L201.007 125.91L203.831 124.754C203.877 124.726 203.929 124.707 203.982 124.696ZM208.342 122.02C206.205 122.019 204.108 121.478 202.274 120.457C200.441 119.435 198.939 117.971 197.929 116.219C196.919 114.467 196.438 112.494 196.538 110.508C196.637 108.523 197.313 106.599 198.494 104.943C199.624 103.353 201.178 102.064 203.004 101.2C204.83 100.337 206.866 99.9286 208.912 100.016C210.959 100.103 212.946 100.683 214.679 101.699C216.413 102.714 217.833 104.131 218.801 105.81C219.769 107.489 220.252 109.373 220.203 111.278C220.154 113.182 219.574 115.042 218.52 116.676C217.466 118.31 215.974 119.661 214.19 120.598C212.406 121.534 210.391 122.025 208.342 122.02ZM199.24 105.397C198.045 107.074 197.411 109.043 197.419 111.055C197.427 113.067 198.077 115.032 199.285 116.701C200.494 118.369 202.207 119.668 204.209 120.431C206.211 121.194 208.411 121.388 210.532 120.989C212.652 120.589 214.597 119.614 216.122 118.187C217.647 116.759 218.682 114.943 219.097 112.968C219.511 110.994 219.287 108.949 218.453 107.093C217.618 105.236 216.21 103.652 214.407 102.54C213.212 101.795 211.869 101.279 210.458 101.02C209.046 100.76 207.594 100.764 206.184 101.029C204.774 101.295 203.434 101.818 202.242 102.567C201.051 103.317 200.03 104.279 199.24 105.397Z" fill="white"/>
<path d="M378.135 145.878L364.194 144.127L373.411 79.8714L346.522 76.5021L281.299 132.343L277.871 156.233L334.073 163.286L331.266 182.832L358.155 186.202L360.961 166.663L374.903 168.414L378.135 145.878ZM307.61 137.025L342.029 107.85L337.305 140.75L307.61 137.025Z" fill="#6EBBC5"/>
<path d="M349.985 185.591H349.87C349.755 185.571 349.653 185.509 349.586 185.419C349.52 185.33 349.494 185.219 349.515 185.112L370.294 79.4587C370.318 79.3526 370.384 79.259 370.48 79.1975C370.576 79.136 370.694 79.1112 370.809 79.1283C370.924 79.1484 371.026 79.21 371.093 79.2998C371.159 79.3895 371.185 79.5 371.164 79.6073L350.429 185.252C350.409 185.348 350.353 185.434 350.273 185.495C350.192 185.557 350.09 185.591 349.985 185.591Z" fill="#293241"/>
<path d="M368.367 81.234C368.36 81.4136 368.276 81.5832 368.135 81.7055C367.993 81.8279 367.805 81.8929 367.612 81.8863C367.419 81.8798 367.237 81.8021 367.105 81.6705C366.974 81.5389 366.904 81.364 366.911 81.1844C366.918 81.0048 367.001 80.8352 367.143 80.7129C367.284 80.5905 367.472 80.5255 367.665 80.5321C367.859 80.5386 368.041 80.6163 368.173 80.7479C368.304 80.8795 368.374 81.0544 368.367 81.234Z" fill="#293241"/>
<path d="M365.409 95.5202C365.404 95.654 365.356 95.7833 365.271 95.8918C365.187 96.0003 365.07 96.0831 364.935 96.1298C364.8 96.1764 364.653 96.1848 364.513 96.1539C364.373 96.1229 364.246 96.0541 364.148 95.956C364.05 95.8579 363.985 95.735 363.962 95.6029C363.939 95.4707 363.959 95.3352 364.019 95.2134C364.079 95.0916 364.176 94.9891 364.299 94.9188C364.421 94.8485 364.564 94.8135 364.707 94.8183C364.803 94.8215 364.897 94.8422 364.984 94.8792C365.071 94.9162 365.15 94.9688 365.215 95.034C365.28 95.0992 365.331 95.1757 365.364 95.2591C365.397 95.3426 365.413 95.4313 365.409 95.5202Z" fill="#293241"/>
<path d="M362.453 109.831C362.45 109.92 362.427 110.007 362.387 110.088C362.348 110.169 362.291 110.242 362.221 110.303C362.151 110.363 362.069 110.411 361.979 110.442C361.889 110.473 361.794 110.487 361.698 110.483C361.603 110.481 361.509 110.462 361.422 110.426C361.335 110.389 361.257 110.338 361.191 110.273C361.126 110.208 361.075 110.133 361.042 110.05C361.008 109.967 360.993 109.878 360.997 109.79C360.999 109.7 361.02 109.612 361.06 109.53C361.099 109.448 361.155 109.374 361.226 109.313C361.296 109.251 361.378 109.203 361.469 109.172C361.559 109.14 361.655 109.126 361.751 109.129C361.944 109.138 362.125 109.216 362.256 109.347C362.387 109.478 362.458 109.652 362.453 109.831Z" fill="#293241"/>
<path d="M356.628 124.695C356.608 124.861 356.523 125.014 356.39 125.125C356.256 125.236 356.083 125.298 355.904 125.298C355.725 125.298 355.552 125.236 355.418 125.125C355.285 125.014 355.2 124.861 355.18 124.695C355.169 124.601 355.179 124.505 355.21 124.414C355.242 124.323 355.293 124.24 355.361 124.169C355.43 124.098 355.513 124.041 355.607 124.002C355.7 123.963 355.802 123.943 355.904 123.943C356.006 123.943 356.108 123.963 356.201 124.002C356.295 124.041 356.378 124.098 356.446 124.169C356.515 124.24 356.566 124.323 356.597 124.414C356.629 124.505 356.639 124.601 356.628 124.695Z" fill="#293241"/>
<path d="M356.53 138.379C356.528 138.468 356.506 138.556 356.467 138.638C356.428 138.719 356.371 138.793 356.301 138.853C356.23 138.914 356.148 138.961 356.057 138.992C355.967 139.023 355.871 139.036 355.775 139.032C355.631 139.027 355.492 138.982 355.376 138.904C355.259 138.825 355.17 138.716 355.12 138.591C355.07 138.465 355.061 138.329 355.094 138.198C355.127 138.068 355.201 137.95 355.307 137.859C355.412 137.768 355.544 137.708 355.686 137.686C355.829 137.665 355.974 137.683 356.105 137.739C356.236 137.795 356.346 137.885 356.422 137.999C356.498 138.113 356.535 138.245 356.53 138.379Z" fill="#293241"/>
<path d="M353.573 152.665C353.57 152.8 353.523 152.93 353.44 153.039C353.357 153.149 353.24 153.233 353.105 153.281C352.97 153.329 352.823 153.338 352.682 153.308C352.542 153.278 352.414 153.21 352.315 153.112C352.216 153.014 352.151 152.892 352.127 152.759C352.103 152.627 352.123 152.491 352.182 152.368C352.242 152.246 352.339 152.143 352.462 152.073C352.585 152.002 352.727 151.967 352.872 151.972C353.063 151.978 353.244 152.055 353.376 152.184C353.507 152.314 353.578 152.487 353.573 152.665Z" fill="#293241"/>
<path d="M350.617 166.952C350.61 167.132 350.527 167.303 350.386 167.427C350.244 167.55 350.056 167.617 349.862 167.613C349.767 167.61 349.673 167.589 349.585 167.552C349.498 167.515 349.42 167.462 349.355 167.397C349.29 167.332 349.239 167.255 349.206 167.172C349.172 167.088 349.157 167 349.161 166.911C349.164 166.822 349.185 166.734 349.225 166.653C349.264 166.572 349.32 166.499 349.39 166.438C349.459 166.377 349.541 166.329 349.631 166.298C349.72 166.266 349.815 166.252 349.911 166.254C350.007 166.257 350.101 166.277 350.188 166.314C350.275 166.35 350.354 166.402 350.419 166.467C350.485 166.532 350.536 166.608 350.57 166.691C350.604 166.775 350.62 166.863 350.617 166.952Z" fill="#293241"/>
<path d="M347.651 181.247C347.646 181.381 347.598 181.51 347.514 181.618C347.429 181.727 347.312 181.81 347.177 181.856C347.042 181.903 346.895 181.911 346.755 181.88C346.615 181.85 346.488 181.781 346.39 181.683C346.292 181.585 346.228 181.462 346.205 181.329C346.182 181.197 346.201 181.062 346.261 180.94C346.321 180.818 346.419 180.716 346.541 180.645C346.664 180.575 346.806 180.54 346.95 180.545C347.046 180.547 347.14 180.567 347.228 180.604C347.315 180.64 347.394 180.693 347.46 180.758C347.525 180.824 347.576 180.901 347.609 180.984C347.641 181.068 347.656 181.158 347.651 181.247Z" fill="#293241"/>
<path d="M355.898 125.067C355.798 125.068 355.701 125.036 355.624 124.977C355.546 124.918 355.493 124.836 355.472 124.745C355.459 124.692 355.457 124.637 355.467 124.583C355.477 124.53 355.498 124.478 355.53 124.432C355.561 124.386 355.602 124.346 355.65 124.315C355.698 124.284 355.752 124.262 355.81 124.25L358.012 123.812C358.07 123.8 358.129 123.799 358.188 123.809C358.246 123.818 358.302 123.839 358.351 123.869C358.401 123.899 358.443 123.938 358.477 123.983C358.51 124.029 358.533 124.08 358.545 124.134C358.556 124.187 358.557 124.242 358.545 124.295C358.534 124.349 358.512 124.399 358.48 124.445C358.448 124.49 358.406 124.529 358.358 124.559C358.31 124.59 358.255 124.611 358.198 124.622L355.996 125.059L355.898 125.067Z" fill="#293241"/>
<path d="M363.26 117.462C362.213 119.989 361.323 122.569 360.596 125.191C359.93 128.106 359.895 134.63 359.895 134.63" fill="#293241"/>
<path d="M359.897 135.043C359.779 135.039 359.668 134.993 359.585 134.915C359.503 134.837 359.455 134.732 359.453 134.622C359.453 134.358 359.506 128.016 360.172 125.109C360.895 122.464 361.785 119.861 362.836 117.313C362.854 117.259 362.884 117.209 362.923 117.165C362.963 117.122 363.012 117.087 363.067 117.062C363.122 117.037 363.182 117.023 363.243 117.021C363.304 117.018 363.365 117.028 363.421 117.048C363.478 117.069 363.53 117.1 363.574 117.14C363.617 117.18 363.651 117.228 363.674 117.281C363.696 117.333 363.707 117.39 363.705 117.447C363.703 117.504 363.688 117.559 363.662 117.611C362.616 120.118 361.726 122.679 360.998 125.282C360.35 128.123 360.306 134.564 360.297 134.63C360.297 134.733 360.257 134.832 360.183 134.909C360.109 134.985 360.007 135.033 359.897 135.043Z" fill="#293241"/>
<path d="M197.535 206.319C198.769 187.821 196.505 154.186 233.899 158.645C273.974 163.41 262.51 206.996 262.51 206.996L197.535 206.319Z" fill="#293241"/>
<path d="M223.341 195.203C232.355 195.203 239.662 188.408 239.662 180.025C239.662 171.642 232.355 164.847 223.341 164.847C214.327 164.847 207.02 171.642 207.02 180.025C207.02 188.408 214.327 195.203 223.341 195.203Z" fill="white"/>
<path d="M225.49 164.872C217.755 163.649 209.506 168.943 208.68 174.31L239.325 176.936C238.241 170.817 231.617 165.846 225.49 164.872Z" fill="#293241"/>
<path d="M235.837 179.645C235.615 183.617 233.289 186.731 230.643 186.599C227.996 186.466 226.025 183.155 226.203 179.166C226.38 175.178 228.751 172.081 231.397 172.213C234.044 172.345 236.05 175.681 235.837 179.645Z" fill="#293241"/>
<path d="M223.342 196.029C219.939 196.029 216.611 195.091 213.781 193.332C210.951 191.574 208.745 189.074 207.443 186.15C206.14 183.225 205.799 180.008 206.463 176.903C207.128 173.799 208.767 170.947 211.173 168.709C213.58 166.471 216.647 164.946 219.985 164.329C223.323 163.711 226.783 164.028 229.928 165.239C233.073 166.451 235.76 168.502 237.651 171.134C239.542 173.766 240.552 176.86 240.552 180.025C240.547 184.269 238.732 188.337 235.506 191.337C232.28 194.338 227.905 196.025 223.342 196.029ZM223.342 165.681C220.289 165.681 217.305 166.523 214.767 168.101C212.229 169.678 210.251 171.92 209.083 174.543C207.915 177.166 207.61 180.052 208.206 182.837C208.802 185.621 210.273 188.178 212.432 190.185C214.592 192.192 217.342 193.558 220.337 194.111C223.331 194.664 226.435 194.379 229.255 193.291C232.074 192.204 234.484 190.363 236.179 188.001C237.874 185.64 238.777 182.864 238.776 180.025C238.771 176.221 237.143 172.574 234.25 169.884C231.356 167.195 227.433 165.683 223.342 165.681Z" fill="#6EBBC5"/>
<path opacity="0.3" d="M257.953 205.856H257.847C257.79 205.845 257.736 205.823 257.688 205.791C257.641 205.76 257.6 205.72 257.57 205.673C257.539 205.627 257.519 205.576 257.51 205.522C257.501 205.468 257.504 205.413 257.518 205.361C257.518 205.254 260.378 194.056 257.438 182.734C257.41 182.624 257.43 182.509 257.493 182.413C257.556 182.317 257.658 182.248 257.776 182.222C257.894 182.196 258.018 182.214 258.121 182.273C258.224 182.332 258.298 182.426 258.326 182.536C261.319 194.097 258.433 205.443 258.406 205.551C258.38 205.642 258.321 205.723 258.238 205.778C258.156 205.834 258.055 205.861 257.953 205.856Z" fill="white"/>
<path opacity="0.3" d="M255.478 176.524C255.393 176.523 255.31 176.5 255.238 176.458C255.166 176.415 255.107 176.355 255.07 176.284C253.966 174.016 252.551 171.889 250.861 169.959C250.787 169.874 250.752 169.766 250.764 169.658C250.776 169.549 250.833 169.45 250.923 169.38C250.968 169.345 251.02 169.319 251.077 169.303C251.133 169.287 251.192 169.281 251.251 169.286C251.31 169.292 251.367 169.308 251.419 169.334C251.471 169.36 251.516 169.396 251.553 169.438C253.286 171.425 254.739 173.609 255.878 175.937C255.903 175.986 255.918 176.039 255.921 176.093C255.924 176.147 255.915 176.201 255.895 176.252C255.875 176.303 255.845 176.349 255.805 176.389C255.765 176.428 255.718 176.46 255.665 176.482C255.606 176.508 255.543 176.522 255.478 176.524Z" fill="white"/>
<path d="M114.314 293.094H113.985C112.808 293.064 111.692 292.599 110.882 291.803C110.073 291.007 109.637 289.945 109.67 288.85C109.703 287.754 110.202 286.716 111.058 285.964C111.914 285.211 113.056 284.806 114.234 284.836H114.314C116.88 284.836 123.052 281.938 135.963 263.01C136.306 262.508 136.762 262.08 137.299 261.756C137.836 261.432 138.442 261.221 139.075 261.135C139.709 261.05 140.355 261.092 140.969 261.261C141.582 261.429 142.15 261.719 142.632 262.11C152.772 270.216 163.831 277.272 175.613 283.152C176.158 283.382 176.647 283.713 177.051 284.124C177.456 284.535 177.766 285.018 177.964 285.544C178.163 286.07 178.244 286.627 178.205 287.183C178.165 287.739 178.005 288.281 177.734 288.778C177.463 289.275 177.087 289.715 176.628 290.073C176.169 290.431 175.637 290.699 175.064 290.861C174.491 291.023 173.888 291.075 173.293 291.015C172.697 290.954 172.121 290.782 171.599 290.509C160.649 285.098 150.298 278.698 140.696 271.4C129.872 286.554 121.844 293.094 114.314 293.094Z" fill="#293241"/>
<path d="M141.786 261.367H141.404C140.707 261.273 140.077 260.925 139.654 260.4C139.232 259.876 139.05 259.216 139.149 258.567C139.779 254.438 138.998 239.053 133.395 227.079C133.146 226.55 133.104 225.957 133.276 225.402C133.448 224.847 133.823 224.365 134.336 224.04C146.501 216.336 172.413 215.411 173.514 215.378C173.864 215.367 174.213 215.42 174.541 215.535C174.868 215.649 175.169 215.822 175.424 216.045C175.68 216.267 175.886 216.534 176.03 216.831C176.175 217.127 176.256 217.447 176.267 217.772C176.279 218.098 176.222 218.422 176.098 218.727C175.975 219.031 175.789 219.311 175.55 219.548C175.311 219.786 175.023 219.978 174.705 220.112C174.386 220.247 174.042 220.322 173.692 220.332C173.452 220.332 150.799 221.158 139.167 227.104C144.122 239.029 145.249 253.885 144.424 259.261C144.328 259.847 144.009 260.382 143.525 260.769C143.041 261.155 142.424 261.367 141.786 261.367Z" fill="#293241"/>
<path d="M146.265 258.163C144.489 254.273 136.497 254.711 131.817 258.047C129.313 259.822 125.921 265.182 125.601 267.131C125.494 267.594 125.51 268.074 125.647 268.53C125.785 268.986 126.039 269.404 126.388 269.749C126.738 270.093 127.172 270.354 127.653 270.508C128.135 270.662 128.65 270.704 129.153 270.632C132.217 270.384 136.417 266.247 136.417 266.247C133.62 268.799 137.234 270.599 142.633 266.908C145.581 264.852 148.245 262.515 146.265 258.163Z" fill="#6EBBC5"/>
<path d="M298.997 207.409C298.956 207.417 298.914 207.417 298.873 207.409C298.816 207.395 298.763 207.37 298.717 207.336C298.671 207.302 298.633 207.26 298.604 207.213C298.576 207.165 298.559 207.112 298.553 207.058C298.547 207.004 298.553 206.949 298.571 206.897C299.752 203.065 301.039 200.728 302.736 199.465C302.47 198.576 302.52 197.632 302.878 196.772C303.291 195.769 304.022 194.905 304.973 194.295C304.715 194.035 304.531 193.719 304.439 193.375C304.348 193.031 304.351 192.672 304.449 192.33C304.771 191.295 305.436 190.382 306.35 189.72C306.02 189.377 305.84 188.933 305.844 188.473C305.844 185.996 310.736 182.263 316.286 181.553C316.404 181.538 316.524 181.566 316.619 181.633C316.713 181.7 316.776 181.798 316.793 181.908C316.809 182.017 316.778 182.129 316.706 182.217C316.635 182.305 316.528 182.363 316.411 182.379C311.136 183.048 306.714 186.599 306.732 188.473C306.73 188.753 306.844 189.022 307.051 189.225C308.246 188.471 309.59 187.947 311.004 187.682C312.419 187.416 313.877 187.416 315.292 187.68C318.018 188.168 319.128 188.704 319.004 189.472C318.755 190.917 312.956 191.223 309.067 190.794C308.37 190.735 307.692 190.553 307.069 190.257C306.232 190.811 305.609 191.602 305.293 192.511C305.217 192.752 305.217 193.008 305.295 193.248C305.372 193.489 305.522 193.703 305.728 193.866C307.38 193.04 309.697 192.742 312.761 193.37C316.784 194.196 316.935 194.65 317.032 194.923C317.064 195.019 317.066 195.121 317.039 195.219C317.013 195.316 316.958 195.405 316.881 195.476C316.038 196.302 309.866 195.914 306.767 195.203C306.393 195.124 306.032 194.999 305.693 194.832C304.775 195.35 304.069 196.137 303.686 197.07C303.429 197.673 303.359 198.331 303.481 198.969C303.639 198.881 303.803 198.801 303.97 198.73C305.808 197.904 308.028 198.052 310.772 199.142C312.548 199.861 313.436 200.505 313.525 201.157C313.529 201.325 313.484 201.49 313.394 201.635C313.305 201.781 313.175 201.901 313.019 201.983C311.66 202.809 306.918 202.693 304.449 201.471C303.882 201.184 303.409 200.759 303.082 200.241C301.634 201.479 300.462 203.684 299.397 207.144C299.364 207.22 299.309 207.284 299.239 207.331C299.168 207.378 299.084 207.405 298.997 207.409ZM303.81 199.704C304.057 200.131 304.434 200.482 304.893 200.711C306.9 201.702 310.843 201.925 312.317 201.372C312.619 201.257 312.663 201.166 312.663 201.166C312.663 201.166 312.619 200.703 310.443 199.836C307.957 198.845 306.003 198.705 304.378 199.407C304.182 199.495 303.992 199.594 303.81 199.704ZM306.776 194.278L306.998 194.336C309.89 194.956 312.866 195.165 315.825 194.956C314.775 194.594 313.693 194.317 312.592 194.13C310.68 193.648 308.657 193.7 306.776 194.278ZM307.895 189.637C308.305 189.774 308.731 189.863 309.165 189.902C313.605 190.389 317.503 189.819 318.045 189.299C317.894 189.175 317.299 188.82 315.096 188.432C312.618 187.972 310.045 188.403 307.895 189.637Z" fill="#293241"/>
<path d="M183.399 291.715C183.985 291.542 183.79 291.013 183.132 291.013H171.109C148.216 288.759 132.223 291.781 142.302 292.491C152.381 293.201 141.592 293.053 134.23 295.646C126.869 298.239 188.975 298.891 194.614 295.646C199.8 292.656 175.283 294.135 183.399 291.715Z" fill="#293241"/>
<path d="M269.48 295.01L164.874 291.781L160.531 197.458L284.061 200.026L269.48 295.01Z" fill="#6EBBC5"/>
<path d="M197.535 293.201C197.423 293.202 197.315 293.163 197.233 293.092C197.15 293.022 197.1 292.925 197.091 292.822L188.708 198.086C188.7 197.976 188.739 197.869 188.815 197.786C188.891 197.702 188.999 197.65 189.116 197.64C189.233 197.635 189.348 197.671 189.437 197.742C189.526 197.812 189.583 197.911 189.596 198.019L198.023 292.756C198.028 292.81 198.021 292.864 198.003 292.916C197.985 292.968 197.957 293.016 197.919 293.058C197.881 293.099 197.834 293.133 197.782 293.158C197.73 293.182 197.673 293.197 197.615 293.201H197.535Z" fill="#293241"/>
<path d="M269.48 295.01L297.595 291.029L306.448 203.321L284.061 200.026L269.48 295.01Z" fill="#6EBBC5"/>
<path opacity="0.2" d="M269.48 295.01L297.595 291.029L306.448 203.321L284.061 200.026L269.48 295.01Z" fill="black"/>
<path d="M173.808 273.605L171.233 217.558C171.169 216.173 171.412 214.791 171.945 213.497C172.479 212.203 173.292 211.025 174.335 210.035C175.378 209.045 176.628 208.265 178.008 207.742C179.389 207.219 180.869 206.965 182.359 206.996L260.557 208.647C262.096 208.68 263.611 209.015 265.001 209.632C266.391 210.249 267.625 211.132 268.621 212.225C269.617 213.317 270.353 214.594 270.78 215.97C271.206 217.346 271.315 218.791 271.097 220.209L262.43 276.644C262.055 279.116 260.712 281.372 258.659 282.98C256.606 284.587 253.986 285.434 251.304 285.356L184.357 283.292C181.609 283.213 178.994 282.171 177.038 280.374C175.081 278.578 173.927 276.16 173.808 273.605Z" fill="#293241"/>
<path d="M182.264 224.197L194.358 224.552L194.26 227.451L186.686 227.228L186.615 229.391L193.639 229.598L193.541 232.373L186.517 232.158L186.428 234.842L194.216 235.073L194.11 238.145L181.793 237.782L182.264 224.197Z" fill="white"/>
<path d="M196.605 238.22L197.067 224.635L204.597 224.858C205.677 224.853 206.752 224.998 207.785 225.288C208.518 225.516 209.145 225.97 209.561 226.576C209.87 227.017 210.078 227.512 210.172 228.031C210.265 228.55 210.243 229.081 210.107 229.592C209.97 230.102 209.722 230.581 209.377 230.998C209.033 231.416 208.6 231.763 208.105 232.018C207.6 232.26 207.058 232.427 206.498 232.513C206.911 232.637 207.302 232.815 207.661 233.042C207.92 233.266 208.152 233.515 208.354 233.785C208.582 234.042 208.785 234.319 208.958 234.611L211.009 238.616L205.912 238.459L203.638 234.239C203.458 233.836 203.192 233.471 202.857 233.166C202.538 232.951 202.158 232.831 201.765 232.819H201.365L201.179 238.327L196.605 238.22ZM201.418 230.275L203.319 230.333C203.722 230.31 204.123 230.258 204.518 230.176C204.815 230.134 205.084 229.99 205.272 229.772C205.464 229.552 205.574 229.279 205.583 228.995C205.6 228.807 205.571 228.617 205.499 228.44C205.427 228.262 205.313 228.102 205.166 227.971C204.67 227.674 204.085 227.532 203.496 227.567L201.507 227.509L201.418 230.275Z" fill="white"/>
<path d="M212.48 238.657L212.942 225.073L220.464 225.296C221.543 225.29 222.618 225.435 223.652 225.725C224.386 225.951 225.013 226.406 225.428 227.013C225.878 227.675 226.09 228.453 226.031 229.235C226.034 229.894 225.845 230.541 225.483 231.108C225.122 231.675 224.603 232.141 223.98 232.455C223.475 232.696 222.933 232.863 222.373 232.951C222.783 233.074 223.172 233.252 223.527 233.479C223.793 233.697 224.028 233.943 224.229 234.214C224.456 234.473 224.658 234.749 224.833 235.04L226.884 239.037L221.787 238.888L219.513 234.669C219.332 234.266 219.066 233.901 218.732 233.595C218.415 233.372 218.029 233.251 217.631 233.248H217.24L217.045 238.765L212.48 238.657ZM217.285 230.713L219.194 230.763C219.598 230.748 219.999 230.699 220.393 230.614C220.688 230.573 220.955 230.428 221.138 230.209C221.337 229.993 221.448 229.718 221.449 229.433C221.469 229.245 221.442 229.055 221.371 228.878C221.3 228.7 221.187 228.54 221.041 228.409C220.546 228.104 219.955 227.961 219.362 228.004L217.382 227.947L217.285 230.713Z" fill="white"/>
<path d="M227.612 232.348C227.544 231.4 227.702 230.45 228.075 229.566C228.448 228.681 229.028 227.885 229.771 227.233C230.515 226.582 231.405 226.092 232.376 225.798C233.348 225.505 234.378 225.415 235.391 225.535C236.414 225.504 237.433 225.664 238.388 226.006C239.343 226.347 240.214 226.864 240.95 227.525C241.607 228.229 242.103 229.049 242.408 229.936C242.714 230.824 242.822 231.759 242.726 232.687C242.733 234.036 242.392 235.367 241.731 236.568C241.133 237.551 240.237 238.349 239.156 238.864C237.882 239.43 236.472 239.681 235.062 239.59C233.657 239.601 232.268 239.319 230.995 238.765C229.912 238.218 229.028 237.385 228.456 236.37C227.784 235.126 227.492 233.735 227.612 232.348ZM232.123 232.497C231.99 233.538 232.244 234.59 232.842 235.478C233.122 235.769 233.463 236.004 233.842 236.17C234.222 236.335 234.634 236.428 235.053 236.443C235.473 236.458 235.891 236.394 236.283 236.255C236.675 236.116 237.033 235.905 237.336 235.635C237.994 234.708 238.306 233.605 238.224 232.497C238.343 231.501 238.082 230.499 237.487 229.664C237.218 229.376 236.885 229.145 236.511 228.986C236.137 228.828 235.731 228.747 235.32 228.748C234.906 228.72 234.49 228.78 234.104 228.923C233.718 229.066 233.372 229.288 233.091 229.573C232.419 230.416 232.077 231.448 232.123 232.497Z" fill="white"/>
<path d="M245.008 239.657L245.47 226.064L252.991 226.287C254.07 226.285 255.144 226.43 256.179 226.716C256.91 226.948 257.535 227.402 257.955 228.005C258.403 228.667 258.615 229.445 258.559 230.226C258.563 230.886 258.374 231.536 258.013 232.104C257.652 232.673 257.131 233.14 256.507 233.455C256 233.689 255.458 233.853 254.9 233.942C255.311 234.068 255.7 234.249 256.055 234.479C256.32 234.696 256.556 234.943 256.756 235.214C256.985 235.471 257.187 235.747 257.36 236.04L259.411 240.045L254.314 239.896L252.041 235.668C251.86 235.268 251.594 234.905 251.259 234.603C250.941 234.381 250.556 234.257 250.158 234.248H249.767L249.572 239.764L245.008 239.657ZM249.812 231.704L251.721 231.762C252.125 231.748 252.526 231.698 252.92 231.613C253.214 231.569 253.48 231.425 253.666 231.209C253.875 230.979 253.986 230.684 253.977 230.383C253.996 230.196 253.969 230.007 253.898 229.831C253.827 229.655 253.715 229.497 253.568 229.367C253.073 229.062 252.482 228.92 251.89 228.963L249.91 228.905L249.812 231.704Z" fill="white"/>
<path d="M252.192 262.738C252.025 262.741 251.86 262.711 251.707 262.649C251.553 262.588 251.416 262.497 251.304 262.383L243.702 254.645L235.497 261.615C235.27 261.808 234.969 261.91 234.661 261.898C234.353 261.885 234.063 261.76 233.855 261.549L226.253 253.811L218.048 260.781C217.821 260.974 217.52 261.076 217.212 261.064C216.904 261.051 216.614 260.926 216.405 260.715L208.795 252.977L200.599 259.947C200.479 260.047 200.339 260.124 200.186 260.172C200.033 260.221 199.872 260.239 199.711 260.227C199.402 260.21 199.113 260.083 198.903 259.872L191.302 252.143L183.105 259.104C182.877 259.298 182.574 259.4 182.265 259.388C181.955 259.376 181.664 259.25 181.454 259.038C181.35 258.933 181.27 258.811 181.218 258.677C181.165 258.543 181.142 258.401 181.15 258.259C181.157 258.117 181.195 257.977 181.261 257.849C181.327 257.72 181.419 257.605 181.534 257.51L190.591 249.806C190.82 249.611 191.122 249.509 191.432 249.522C191.741 249.534 192.033 249.66 192.243 249.872L199.844 257.609L208.04 250.64C208.273 250.45 208.575 250.349 208.884 250.359C209.193 250.374 209.483 250.502 209.692 250.714L217.293 258.452L225.498 251.482C225.61 251.385 225.742 251.31 225.886 251.261C226.029 251.211 226.182 251.189 226.335 251.195C226.488 251.202 226.638 251.236 226.776 251.296C226.915 251.357 227.039 251.443 227.141 251.548L234.743 259.286L242.948 252.316C243.175 252.122 243.476 252.021 243.784 252.033C244.092 252.045 244.382 252.171 244.59 252.382L253.08 260.954C253.231 261.112 253.331 261.307 253.365 261.516C253.399 261.725 253.367 261.939 253.273 262.132C253.179 262.324 253.027 262.487 252.835 262.601C252.643 262.714 252.419 262.773 252.192 262.771V262.738Z" fill="white"/>
<path d="M111.666 297.016L106.107 294.547L101.152 272.11L103.843 269.36L111.666 297.016Z" fill="#6EBBC5"/>
<path d="M111.667 297.016L119.046 293.003L112.724 274.521L103.844 269.36L111.667 297.016Z" fill="#6EBBC5"/>
<path opacity="0.2" d="M111.667 297.016L119.046 293.003L112.724 274.521L103.844 269.36L111.667 297.016Z" fill="black"/>
<path d="M232.657 301.096H232.044C230.867 301.067 229.75 300.603 228.94 299.808C228.13 299.013 227.692 297.951 227.724 296.856C227.756 295.761 228.254 294.722 229.109 293.969C229.965 293.216 231.107 292.809 232.284 292.838C239.122 293.045 253.596 289.139 261.872 281.674C262.372 281.218 262.981 280.878 263.648 280.683C277.67 276.768 282.882 284.671 283.095 285.01L275.459 289.213C275.486 289.266 275.518 289.316 275.556 289.362C275.476 289.254 273.487 286.884 267.165 288.338C256.784 297.141 240.853 301.096 232.657 301.096Z" fill="#293241"/>
<path d="M232.116 306.58L215.946 305.638L214.676 277.908L236.405 278.659L232.116 306.58Z" fill="#6EBBC5"/>
<path d="M232.117 306.579L235.9 303.078L238.244 285.794L236.406 278.659L232.117 306.579Z" fill="#6EBBC5"/>
<path opacity="0.2" d="M232.117 306.579L235.9 303.078L238.244 285.794L236.406 278.659L232.117 306.579Z" fill="black"/>
<path d="M325.816 296.084C325.236 296.083 324.671 295.906 324.209 295.58C314.974 289.056 302.497 277.47 297.711 266.297C297.639 266.135 297.589 265.966 297.56 265.793C295.225 252.878 292.996 225.701 292.898 224.553C292.872 224.227 292.915 223.9 293.024 223.591C293.134 223.281 293.308 222.994 293.537 222.747C293.999 222.247 294.656 221.939 295.362 221.89C296.069 221.84 296.767 222.054 297.305 222.484C297.842 222.914 298.173 223.524 298.226 224.181C298.226 224.454 300.508 251.895 302.782 264.703C307.559 275.571 320.542 286.727 327.45 291.633C327.895 291.947 328.223 292.382 328.387 292.879C328.551 293.375 328.543 293.907 328.364 294.399C328.185 294.891 327.845 295.318 327.391 295.621C326.937 295.923 326.392 296.085 325.834 296.084H325.816Z" fill="#293241"/>
<path d="M338.132 297.331C336.071 297.331 333.736 296.464 331.187 294.754C330.615 294.369 330.231 293.788 330.119 293.139C330.008 292.49 330.178 291.826 330.592 291.294C331.007 290.762 331.632 290.405 332.33 290.301C333.027 290.197 333.741 290.355 334.313 290.741C336.515 292.219 337.714 292.392 338.132 292.392C338.838 292.392 339.516 292.653 340.015 293.118C340.515 293.583 340.796 294.213 340.796 294.87C340.796 295.527 340.515 296.157 340.015 296.622C339.516 297.086 338.838 297.347 338.132 297.347V297.331Z" fill="#293241"/>
<path d="M331.933 294.68C334.784 286.81 346.47 288.362 350.501 289.535C353.945 290.465 357.248 291.797 360.332 293.499C362.507 294.82 362.543 297.042 359.639 298.305C356.087 299.858 347.065 298.478 347.065 298.478C351.718 300.369 347.065 303.433 338.886 300.427C336.231 299.453 330.93 297.57 331.933 294.68Z" fill="#6EBBC5"/>
<path d="M303.571 227.922C302.514 234.611 296.556 239.541 291.707 238.88C286.859 238.22 286.664 232.274 287.72 225.552C288.777 218.83 290.695 213.991 295.544 214.651C300.392 215.312 304.628 221.258 303.571 227.922Z" fill="#293241"/>
<path d="M186.373 201.248C186.775 201.248 187.101 200.945 187.101 200.571C187.101 200.197 186.775 199.894 186.373 199.894C185.971 199.894 185.645 200.197 185.645 200.571C185.645 200.945 185.971 201.248 186.373 201.248Z" fill="#293241"/>
<path d="M193.769 205.444C193.769 205.577 193.726 205.708 193.646 205.82C193.566 205.931 193.452 206.018 193.319 206.069C193.186 206.12 193.04 206.134 192.899 206.108C192.757 206.082 192.628 206.017 192.526 205.922C192.424 205.828 192.355 205.707 192.326 205.576C192.298 205.444 192.313 205.308 192.368 205.184C192.423 205.061 192.516 204.955 192.636 204.88C192.756 204.806 192.897 204.766 193.041 204.766C193.234 204.766 193.419 204.838 193.556 204.965C193.692 205.092 193.769 205.264 193.769 205.444Z" fill="#293241"/>
<path d="M194.589 285.464C194.589 285.597 194.546 285.728 194.466 285.84C194.386 285.951 194.273 286.038 194.14 286.089C194.007 286.14 193.86 286.154 193.719 286.128C193.578 286.102 193.448 286.037 193.346 285.942C193.244 285.848 193.175 285.727 193.147 285.596C193.119 285.464 193.133 285.328 193.188 285.204C193.243 285.081 193.337 284.975 193.456 284.901C193.576 284.826 193.717 284.786 193.861 284.786C194.054 284.786 194.239 284.858 194.376 284.985C194.512 285.112 194.589 285.284 194.589 285.464Z" fill="#293241"/>
<path d="M201.257 290.344C201.257 290.478 201.214 290.609 201.134 290.72C201.054 290.832 200.941 290.919 200.808 290.97C200.675 291.021 200.528 291.034 200.387 291.008C200.246 290.982 200.116 290.918 200.014 290.823C199.912 290.728 199.843 290.608 199.815 290.476C199.787 290.345 199.801 290.209 199.856 290.085C199.911 289.961 200.005 289.856 200.124 289.781C200.244 289.707 200.385 289.667 200.529 289.667C200.722 289.667 200.907 289.738 201.044 289.865C201.18 289.992 201.257 290.165 201.257 290.344Z" fill="#293241"/>
<path d="M73.2701 298.462C71.9917 298.406 70.743 298.084 69.6164 297.52C68.4898 296.955 67.514 296.162 66.7611 295.2C66.7241 295.156 66.6973 295.105 66.6822 295.051C66.6671 294.996 66.664 294.94 66.6731 294.884C66.6822 294.829 66.7034 294.776 66.7352 294.728C66.7671 294.681 66.8091 294.64 66.8585 294.608C66.908 294.576 66.964 294.554 67.023 294.542C67.082 294.531 67.1429 294.531 67.2019 294.543C67.2609 294.554 67.3168 294.576 67.3662 294.608C67.4156 294.64 67.4574 294.682 67.4892 294.729C69.1498 296.959 72.8172 298.14 74.4156 297.438C74.5757 297.375 74.7184 297.279 74.833 297.157C74.0253 296.826 73.3176 296.316 72.7725 295.671C72.2273 295.026 71.8614 294.265 71.7072 293.457C71.503 292.409 71.3431 290.98 72.2666 290.798C73.5454 290.534 75.2148 293.4 75.8186 295.571C75.928 295.931 75.9671 296.306 75.9341 296.678C76.4463 296.82 76.985 296.859 77.5147 296.794C77.7534 296.777 77.9857 296.713 78.1967 296.608C78.4077 296.503 78.5928 296.358 78.7401 296.183C78.1557 295.772 77.671 295.252 77.3175 294.656C76.964 294.06 76.7498 293.401 76.6889 292.722C76.3514 290.46 76.609 290.072 76.8754 289.873C76.9617 289.812 77.0647 289.774 77.1729 289.764C77.2811 289.753 77.3902 289.771 77.4881 289.816C78.4382 290.187 79.5838 293.391 79.8058 295.208C79.8324 295.397 79.8324 295.589 79.8058 295.778C80.1886 295.915 80.5944 295.987 81.0045 295.993C81.7575 296.02 82.5023 295.839 83.1446 295.472C83.0203 295.398 82.9049 295.315 82.7894 295.233C81.9014 294.498 81.4929 293.325 81.6528 291.657C81.7771 290.361 82.0879 289.65 82.6473 289.427C82.8278 289.36 83.0255 289.343 83.2162 289.378C83.407 289.413 83.5826 289.499 83.7218 289.626C84.3213 290.241 84.7692 290.971 85.0345 291.764C85.2998 292.557 85.3761 293.394 85.2581 294.217C85.181 294.56 85.0266 294.884 84.8052 295.167C86.4391 295.431 88.7301 295.002 90.7104 294.547C90.7687 294.534 90.8292 294.532 90.8884 294.541C90.9476 294.55 91.0044 294.569 91.0555 294.598C91.1067 294.627 91.1511 294.666 91.1863 294.711C91.2216 294.756 91.2469 294.807 91.2609 294.861C91.2749 294.915 91.2773 294.972 91.2679 295.027C91.2585 295.082 91.2376 295.135 91.2062 295.182C91.1749 295.23 91.1338 295.271 91.0853 295.304C91.0368 295.337 90.9818 295.36 90.9235 295.373C88.517 295.927 85.9241 296.381 84.0948 295.885C83.2018 296.517 82.1084 296.854 80.9868 296.843C80.489 296.837 79.9963 296.75 79.5305 296.587C79.3239 296.884 79.0467 297.133 78.7203 297.315C78.394 297.497 78.0271 297.607 77.6479 297.636C76.9804 297.716 76.3023 297.662 75.6588 297.479C75.4516 297.804 75.1414 298.06 74.7708 298.214C74.2945 298.393 73.7834 298.477 73.2701 298.462ZM72.5064 291.624C72.3836 292.186 72.4079 292.766 72.5774 293.317C72.7027 293.977 72.9973 294.6 73.4364 295.132C73.8754 295.664 74.4458 296.089 75.0994 296.372C75.0869 296.177 75.0512 295.983 74.9928 295.794C74.3002 293.433 72.9682 291.806 72.5064 291.624ZM77.4526 290.906C77.4583 291.475 77.5088 292.044 77.6035 292.607C77.7014 293.614 78.1796 294.556 78.9533 295.266C78.7347 293.741 78.2266 292.265 77.4526 290.906ZM83.0381 290.187C83.0381 290.187 82.7006 290.344 82.5763 291.723C82.452 293.102 82.7095 294.052 83.4021 294.605C83.566 294.729 83.7448 294.834 83.9349 294.919C84.1685 294.687 84.3336 294.402 84.4145 294.093C84.5726 292.793 84.195 291.486 83.3577 290.435C83.1713 290.22 83.0647 290.187 83.0381 290.187Z" fill="#293241"/>
<path d="M203.239 304.704L205.646 300.823L203.239 296.942H200.664L202.12 300.823L200.664 304.704H203.239Z" fill="#293241"/>
<path d="M200.833 302.846C200.536 302.864 200.239 302.825 199.959 302.731C199.679 302.638 199.423 302.492 199.206 302.303C198.989 302.114 198.816 301.885 198.698 301.631C198.58 301.377 198.519 301.104 198.519 300.827C198.519 300.551 198.58 300.277 198.698 300.023C198.816 299.769 198.989 299.541 199.206 299.352C199.423 299.162 199.679 299.016 199.959 298.923C200.239 298.83 200.536 298.79 200.833 298.808L196.748 298.048L195.656 301.12L197.486 303.713L200.833 302.846Z" fill="#293241"/>
<path d="M201.185 296.942H196.364L193.957 300.823L196.364 304.704H201.185L203.592 300.823L201.185 296.942ZM198.779 302.846C198.348 302.848 197.927 302.731 197.568 302.509C197.209 302.288 196.929 301.973 196.763 301.603C196.597 301.234 196.552 300.827 196.635 300.434C196.718 300.041 196.925 299.679 197.228 299.395C197.532 299.112 197.92 298.918 198.342 298.839C198.765 298.761 199.202 298.8 199.601 298.953C199.999 299.106 200.339 299.365 200.578 299.698C200.818 300.031 200.946 300.423 200.946 300.823C200.946 301.358 200.718 301.872 200.312 302.251C199.905 302.63 199.354 302.844 198.779 302.846Z" fill="#6EBBC5"/>
<path d="M371.09 296.678L369.305 293.796L371.09 290.914H372.999L371.924 293.796L372.999 296.678H371.09Z" fill="#6EBBC5"/>
<path d="M372.871 295.298C373.093 295.314 373.316 295.286 373.525 295.218C373.735 295.15 373.928 295.042 374.09 294.901C374.253 294.76 374.383 294.59 374.472 294.4C374.561 294.211 374.607 294.006 374.607 293.8C374.607 293.593 374.561 293.388 374.472 293.199C374.383 293.009 374.253 292.839 374.09 292.698C373.928 292.558 373.735 292.45 373.525 292.381C373.316 292.313 373.093 292.285 372.871 292.301L375.908 291.739L376.716 294.018L375.366 295.943L372.871 295.298Z" fill="#6EBBC5"/>
<path d="M372.616 290.914H376.168L377.944 293.796L376.168 296.678H372.616L370.84 293.796L372.616 290.914ZM374.392 295.299C374.712 295.3 375.025 295.213 375.292 295.049C375.559 294.885 375.768 294.651 375.891 294.377C376.015 294.102 376.048 293.8 375.987 293.507C375.926 293.215 375.772 292.947 375.547 292.736C375.321 292.525 375.033 292.381 374.719 292.322C374.406 292.264 374.08 292.293 373.784 292.406C373.488 292.52 373.236 292.712 373.058 292.96C372.88 293.207 372.785 293.498 372.785 293.796C372.783 293.993 372.824 294.189 372.905 294.372C372.986 294.555 373.105 294.721 373.255 294.861C373.406 295.001 373.584 295.111 373.781 295.186C373.977 295.262 374.188 295.3 374.401 295.299H374.392Z" fill="#293241"/>
<path d="M304.584 300.51H308.598C309.1 300.507 309.581 300.32 309.936 299.989C310.29 299.658 310.489 299.21 310.489 298.742C310.489 298.275 310.29 297.827 309.936 297.496C309.581 297.164 309.1 296.977 308.598 296.975H304.584C304.08 296.975 303.597 297.161 303.24 297.493C302.884 297.824 302.684 298.274 302.684 298.742C302.684 299.211 302.884 299.66 303.24 299.992C303.597 300.323 304.08 300.51 304.584 300.51Z" fill="#293241"/>
<path d="M298.129 297.173C298.502 296.543 299.064 296.028 299.747 295.692C300.431 295.356 301.205 295.213 301.975 295.281C302.744 295.349 303.476 295.625 304.079 296.075C304.681 296.525 305.13 297.13 305.368 297.814C305.606 298.498 305.623 299.232 305.418 299.925C305.213 300.618 304.794 301.24 304.214 301.715C303.633 302.189 302.915 302.495 302.15 302.595C301.384 302.695 300.604 302.584 299.905 302.277C298.945 301.816 298.219 301.021 297.886 300.065C297.554 299.109 297.641 298.07 298.129 297.173Z" fill="#6EBBC5"/>
<path d="M299.212 302.275L300.312 302.758L304.137 295.213L303.036 294.731L299.212 302.275Z" fill="#293241"/>
</svg>
