<svg width="109" height="48" viewBox="0 0 109 48" fill="none" xmlns="http://www.w3.org/2000/svg">
<rect width="109" height="48" fill="white"/>
<path d="M21.1174 26.2288C18.4422 26.2288 16.2292 28.1795 15.8233 30.7364V30.7421C15.8176 30.7421 15.8176 30.7421 15.8233 30.7477C15.7754 31.0155 15.7556 31.3002 15.7556 31.5821C15.7556 31.8358 15.7753 32.0924 15.8176 32.3405C16.1757 34.9396 18.4168 36.9327 21.1203 36.9327C24.0774 36.9327 26.4764 34.5393 26.4764 31.5821C26.4736 28.6221 24.0746 26.2288 21.1174 26.2288Z" fill="#163663"/>
<path d="M19.6403 20.8721C22.6059 20.8721 24.9964 18.4731 24.9964 15.5215C24.9964 14.969 24.9147 14.4446 24.7681 13.9485C24.5623 13.3001 24.2438 12.6997 23.8294 12.1753C22.8512 10.949 21.3401 10.1541 19.6374 10.1541C18.631 10.1541 17.6867 10.4303 16.8804 10.918C16.3081 11.2619 15.7979 11.7102 15.392 12.243C14.69 13.1451 14.2812 14.284 14.2812 15.5187C14.2841 18.4731 16.6831 20.8721 19.6403 20.8721Z" fill="#163663"/>
<path d="M73.3432 5.65228C70.3268 11.0592 68.0772 15.4175 66.5916 18.7186C65.1088 22.0253 63.8994 25.2418 62.9691 28.371C62.0388 31.5001 61.3228 34.773 60.8266 38.1897H52.4766C53.2772 33.3297 54.6952 28.4048 56.7249 23.4264C58.7546 18.4423 61.5596 13.0748 65.1369 7.30988H47.3516V0.910645H73.346V5.65228H73.3432Z" fill="#6EBBC5"/>
<path d="M108.201 38.1925H99.0555L93.206 28.4922C92.0023 26.4879 91.0156 25.1939 90.246 24.6188C89.4764 24.0437 88.6561 23.7506 87.7906 23.7506H85.386V38.1925H77.4419V0.910645H90.511C99.3825 0.910645 103.82 4.28223 103.82 11.0226C103.82 13.5569 103.075 15.7304 101.593 17.543C100.11 19.3557 98.0688 20.6355 95.4669 21.3713V21.4671C97.1837 22.0422 99.0865 23.9366 101.17 27.1475L108.201 38.1925ZM85.386 6.95186V17.6896H89.2847C91.1481 17.6896 92.6422 17.1484 93.7726 16.0658C94.9031 14.9833 95.4697 13.6302 95.4697 12.0121C95.4697 8.64047 93.4569 6.95468 89.4285 6.95468H85.386V6.95186Z" fill="#163663"/>
<path d="M39.2524 0.00292969H11.809L11.995 1.43783L12.821 7.74685C13.1734 7.43676 13.5455 7.1464 13.9374 6.89268C15.5781 5.80453 17.5373 5.17588 19.6403 5.17588C23.0795 5.17588 26.1213 6.8504 27.996 9.43546C28.4019 9.988 28.7599 10.5856 29.0446 11.2199C29.6451 12.5308 29.9834 13.9854 29.9834 15.5218C29.9834 18.4395 28.7712 21.0781 26.8176 22.9612C29.6113 24.8077 31.4577 27.9792 31.4577 31.5875C31.4577 37.2961 26.8261 41.9222 21.1175 41.9222C15.8853 41.9222 11.5694 38.0347 10.8872 32.9801L10.8251 32.5122L10.8195 32.4699L6.58248 0.00292969H2.28907C1.02331 0.00292969 0 1.02906 0 2.292V43.4839C0 44.7497 1.02613 45.773 2.28907 45.773H13.3792C13.3228 45.2374 13.3989 44.6933 13.6104 44.1915C13.616 44.1633 13.647 44.0956 13.678 44.0252C14.0783 43.2076 14.7464 42.6213 15.5781 42.3337C15.9276 42.2182 16.2772 42.1618 16.6296 42.1618C17.9714 42.1618 19.1611 42.9596 19.6657 44.1943C19.6882 44.2451 19.7136 44.3155 19.739 44.3888C19.8912 44.8399 19.9391 45.3107 19.894 45.773H23.5785C23.5334 45.2543 23.6123 44.7299 23.8153 44.2422C23.8209 44.214 23.852 44.1464 23.883 44.0759C24.2833 43.2584 24.9514 42.672 25.783 42.3845C26.1326 42.2689 26.4821 42.2125 26.8345 42.2125C28.1764 42.2125 29.366 43.0103 29.8706 44.2451C29.8932 44.2958 29.9185 44.3663 29.9439 44.4396C30.0905 44.8737 30.1413 45.3248 30.1046 45.7702H39.2552C40.521 45.7702 41.5443 44.744 41.5443 43.4811V2.292C41.5443 1.02906 40.5182 0.00292969 39.2524 0.00292969Z" fill="#163663"/>
<path d="M10.8218 32.5093L10.8838 32.9772C11.566 38.0318 15.882 41.9192 21.1141 41.9192C26.8227 41.9192 31.4544 37.2932 31.4544 31.5846C31.4544 27.979 29.6079 24.8076 26.8142 22.9583C28.765 21.0752 29.98 18.4366 29.98 15.5189C29.98 13.9825 29.6417 12.5278 29.0413 11.217C28.7594 10.5827 28.4013 9.98225 27.9926 9.43253C26.1179 6.84747 23.0762 5.17295 19.6369 5.17295C17.5339 5.17295 15.5775 5.8016 13.934 6.88975C13.5422 7.14346 13.17 7.43383 12.8177 7.74392L11.9917 1.43489L11.8056 0H6.5791L10.8133 32.467L10.8218 32.5093ZM21.1169 36.9352C18.4135 36.9352 16.1723 34.9421 15.8143 32.3429C15.772 32.0949 15.7523 31.8383 15.7523 31.5846C15.7523 31.3027 15.772 31.018 15.8199 30.7502C15.8143 30.7445 15.8143 30.7445 15.8199 30.7445V30.7389C16.2259 28.182 18.4388 26.2312 21.1141 26.2312C24.0713 26.2312 26.4703 28.6246 26.4703 31.5874C26.4731 34.5446 24.0741 36.9352 21.1169 36.9352ZM15.3943 12.2459C15.8002 11.716 16.3105 11.2677 16.8827 10.921C17.689 10.4305 18.6333 10.157 19.6397 10.157C21.3425 10.157 22.8535 10.9492 23.8317 12.1783C24.2461 12.7026 24.5618 13.3031 24.7704 13.9515C24.9142 14.4476 24.9988 14.972 24.9988 15.5245C24.9988 18.476 22.6054 20.875 19.6426 20.875C16.6854 20.875 14.2864 18.476 14.2864 15.5245C14.2836 14.2869 14.6895 13.1509 15.3943 12.2459Z" fill="#6EBBC5"/>
<path d="M29.1069 44.7247C29.0928 44.6796 29.0787 44.6373 29.0618 44.5979C28.6925 43.6958 27.8017 43.0981 26.8375 43.0981C26.581 43.0981 26.3217 43.1404 26.0679 43.2222C25.4647 43.4308 24.9741 43.8593 24.6979 44.4259C24.6725 44.4795 24.6584 44.5105 24.6471 44.5415C24.478 44.9474 24.4216 45.3647 24.4695 45.7706C24.4893 45.9341 24.5231 46.0976 24.5767 46.2555C24.7796 46.8616 25.211 47.3521 25.7832 47.6368C26.3583 47.9215 27.0039 47.9638 27.6071 47.758H27.61C28.2132 47.5551 28.7038 47.1266 28.9885 46.5515C29.1125 46.3034 29.1858 46.0384 29.2196 45.7706C29.2563 45.4267 29.2225 45.0687 29.1069 44.7247Z" fill="#6EBBC5"/>
<path d="M18.9014 44.6735C18.8873 44.6284 18.8732 44.5861 18.8563 44.5466C18.487 43.6445 17.5962 43.0469 16.6321 43.0469C16.3755 43.0469 16.1162 43.0892 15.8625 43.1709C15.2592 43.3795 14.7687 43.808 14.4924 44.3747C14.467 44.4282 14.4529 44.4592 14.4417 44.4902C14.2641 44.9131 14.2105 45.35 14.2697 45.7701C14.2894 45.9167 14.3233 46.0605 14.3712 46.2042C14.5741 46.8103 15.0055 47.3008 15.5777 47.5856C16.1528 47.8703 16.7984 47.9126 17.4017 47.7068H17.4045C18.0078 47.5038 18.4983 47.0753 18.783 46.5002C18.8986 46.2662 18.9719 46.021 19.0085 45.7729C19.0564 45.4092 19.0254 45.0343 18.9014 44.6735Z" fill="#6EBBC5"/>
<path d="M47.2183 43.6741C47.2337 43.3572 47.2446 42.8837 47.2512 42.2537C47.2596 41.6236 47.2583 41.1492 47.2475 40.8304C47.4062 40.8341 47.5349 40.836 47.6338 40.836C47.7476 40.836 47.8706 40.8341 48.0029 40.8304L47.9958 41.2806C48.0525 41.193 48.1042 41.1221 48.1509 41.0681C48.1993 41.0122 48.2619 40.9609 48.3387 40.9143C48.4155 40.8677 48.5056 40.8313 48.6092 40.8052C48.7145 40.7773 48.8232 40.7633 48.9351 40.7633C49.019 40.7633 49.1004 40.7717 49.1794 40.7885C49.2582 40.8034 49.3298 40.8257 49.3943 40.8556C49.4605 40.8835 49.5166 40.9162 49.5627 40.9534C49.6106 40.9907 49.6512 41.0327 49.6845 41.0793C49.7177 41.124 49.7545 41.1911 49.7948 41.2806C49.8336 41.2153 49.8691 41.1613 49.9012 41.1184C49.9351 41.0737 49.9802 41.028 50.0364 40.9814C50.0927 40.9348 50.1557 40.8956 50.2255 40.864C50.2953 40.8323 50.3737 40.808 50.4608 40.7913C50.5497 40.7726 50.6417 40.7633 50.7369 40.7633C50.8991 40.7633 51.053 40.7903 51.1985 40.8444C51.3439 40.8966 51.4596 40.9805 51.5456 41.096C51.6315 41.2098 51.6774 41.3514 51.6831 41.5211C51.6862 41.6105 51.6841 41.742 51.677 41.9153C51.6698 42.0887 51.6636 42.372 51.6583 42.7654C51.653 43.1568 51.653 43.4597 51.6584 43.6741C51.5222 43.6704 51.4018 43.6685 51.2973 43.6685C51.1742 43.6685 51.0297 43.6704 50.8639 43.6741C50.8725 43.4336 50.8798 43.182 50.8858 42.9191L50.8975 42.2788C50.9014 42.1166 50.9014 41.9796 50.8975 41.8678C50.893 41.7354 50.8682 41.6357 50.823 41.5686C50.7796 41.4996 50.7248 41.4512 50.6586 41.4232C50.5942 41.3934 50.5218 41.3785 50.4416 41.3785C50.3577 41.3785 50.2818 41.3943 50.2138 41.426C50.1478 41.4577 50.0861 41.5089 50.0288 41.5798C49.9734 41.6506 49.9315 41.7336 49.903 41.8286C49.8745 41.9218 49.8556 42.0542 49.8466 42.2257C49.8374 42.3953 49.8329 42.619 49.833 42.8968L49.8399 43.6741C49.6849 43.6704 49.5562 43.6685 49.4536 43.6685C49.351 43.6685 49.214 43.6704 49.0425 43.6741C49.0507 43.5306 49.0593 43.237 49.0685 42.7933C49.0777 42.3497 49.0796 42.0505 49.0743 41.8957C49.0715 41.8137 49.0627 41.7448 49.0477 41.6888C49.0327 41.631 49.0038 41.577 48.9611 41.5267C48.9201 41.4745 48.8722 41.4362 48.8173 41.412C48.7624 41.3878 48.6995 41.3757 48.6286 41.3757C48.498 41.3757 48.3848 41.4185 48.2888 41.5043C48.1929 41.59 48.124 41.7047 48.0823 41.8482C48.0424 41.9917 48.0193 42.2714 48.0129 42.6871C48.0083 43.1009 48.0102 43.4299 48.0185 43.6741C47.8468 43.6704 47.7171 43.6685 47.6294 43.6685C47.5306 43.6685 47.3935 43.6704 47.2183 43.6741Z" fill="#2B4872"/>
<path d="M52.4726 41.454C52.4942 41.3197 52.5068 41.2256 52.5106 41.1715C52.5162 41.1175 52.5255 41.0355 52.5386 40.9255C52.7902 40.8658 53.0126 40.8239 53.2058 40.7996C53.3989 40.7754 53.586 40.7633 53.7669 40.7633C53.9721 40.7633 54.1613 40.7875 54.3345 40.836C54.5077 40.8826 54.6446 40.9581 54.7451 41.0625C54.8456 41.1669 54.8992 41.3169 54.9059 41.5127C54.9095 41.6189 54.9038 41.8902 54.8888 42.3264C54.8738 42.7607 54.8713 43.2099 54.8815 43.6741C54.7396 43.6704 54.609 43.6685 54.4896 43.6685C54.3759 43.6685 54.2426 43.6704 54.0897 43.6741C54.1063 43.4486 54.117 43.1876 54.1219 42.8912L54.1345 42.1949C54.0652 42.2415 54.0123 42.2742 53.9756 42.2928C53.9389 42.3114 53.8976 42.3292 53.8515 42.3459C53.8054 42.3608 53.7241 42.3851 53.6078 42.4186C53.4913 42.4503 53.3981 42.4783 53.328 42.5025C53.258 42.5267 53.1946 42.5547 53.1378 42.5864C53.0829 42.6162 53.0365 42.6507 52.9987 42.6899C52.9608 42.7271 52.9332 42.7672 52.916 42.8101C52.9006 42.8511 52.8938 42.8958 52.8954 42.9443C52.8981 43.0226 52.9228 43.0906 52.9695 43.1484C53.0181 43.2044 53.0772 43.2435 53.147 43.2659C53.2167 43.2882 53.2983 43.2994 53.3915 43.2994C53.4512 43.2994 53.5135 43.2948 53.5785 43.2854C53.6453 43.2761 53.7341 43.2528 53.8447 43.2155C53.8092 43.3218 53.7689 43.4802 53.7238 43.6909C53.5921 43.7133 53.4872 43.7272 53.4091 43.7328C53.3309 43.7384 53.2583 43.7412 53.1911 43.7412C52.9561 43.7412 52.762 43.7095 52.6087 43.6461C52.4555 43.5828 52.3402 43.4821 52.2627 43.3442C52.1872 43.2062 52.147 43.0673 52.1422 42.9275C52.1395 42.8474 52.1508 42.7682 52.1761 42.6899C52.2014 42.6116 52.24 42.5398 52.2919 42.4746C52.3438 42.4093 52.4116 42.3469 52.4954 42.2872C52.5791 42.2257 52.7011 42.167 52.8615 42.1111C53.0218 42.0533 53.2343 41.9955 53.4991 41.9377C53.5694 41.9228 53.6425 41.9051 53.7183 41.8846C53.794 41.8622 53.8539 41.8408 53.898 41.8203C53.9439 41.7997 53.9831 41.7736 54.0156 41.742C54.048 41.7084 54.0711 41.6739 54.0848 41.6385C54.1004 41.6031 54.1076 41.5667 54.1063 41.5294C54.1038 41.4567 54.0775 41.3952 54.0273 41.3449C53.9789 41.2946 53.9162 41.2601 53.8391 41.2414C53.7638 41.2209 53.6804 41.2107 53.5891 41.2107C53.2496 41.2107 52.8774 41.2918 52.4726 41.454Z" fill="#2B4872"/>
<path d="M55.5838 43.6741L55.615 42.9471L55.6319 41.5518L55.622 40.3579C55.6184 40.1416 55.6146 39.9748 55.6106 39.8573C55.8066 39.8611 55.9456 39.8629 56.0276 39.8629C56.1246 39.8629 56.2523 39.8611 56.4108 39.8573L56.3829 40.7661L56.365 42.2145L56.3739 43.2966L56.3839 43.6741C56.2178 43.6704 56.0872 43.6685 55.992 43.6685C55.8839 43.6685 55.7478 43.6704 55.5838 43.6741ZM56.4221 42.0831L56.9665 41.3896C57.013 41.33 57.0683 41.2564 57.1324 41.1687C57.1966 41.0811 57.2776 40.9683 57.3755 40.8304C57.5696 40.8341 57.7115 40.836 57.801 40.836C57.9241 40.836 58.0798 40.8341 58.268 40.8304L57.3835 41.8874L57.2253 42.0887C57.3688 42.3049 57.7645 42.8334 58.4123 43.6741C58.2443 43.6704 58.1007 43.6685 57.9813 43.6685C57.8619 43.6685 57.7137 43.6704 57.5366 43.6741C57.4224 43.497 57.329 43.3553 57.2564 43.2491C57.1855 43.141 57.1199 43.0468 57.0593 42.9667L56.5606 42.2872C56.5469 42.2686 56.5007 42.2005 56.4221 42.0831Z" fill="#2B4872"/>
<path d="M61.2473 43.0394C61.2268 43.1494 61.199 43.347 61.1639 43.6322C60.964 43.675 60.7952 43.7039 60.6577 43.7189C60.5202 43.7338 60.3815 43.7412 60.2416 43.7412C59.9972 43.7412 59.7772 43.717 59.5816 43.6685C59.3879 43.6201 59.216 43.5315 59.0662 43.4029C58.9163 43.2724 58.8036 43.113 58.7282 42.9247C58.6527 42.7365 58.6115 42.5389 58.6045 42.3319C58.5967 42.1027 58.6292 41.8808 58.7021 41.6665C58.775 41.4502 58.8809 41.2741 59.0199 41.138C59.1607 41 59.3225 40.9031 59.5052 40.8472C59.6879 40.7894 59.88 40.7605 60.0814 40.7605C60.2717 40.7605 60.4534 40.7847 60.6267 40.8332C60.7998 40.8798 60.9461 40.9572 61.0654 41.0653C61.1866 41.1734 61.2806 41.3039 61.3473 41.4567C61.4159 41.6077 61.4533 41.7764 61.4597 41.9629C61.4626 42.0505 61.4564 42.1409 61.4409 42.2341L59.3902 42.2369C59.3888 42.3059 59.3888 42.3608 59.3902 42.4019C59.3945 42.5267 59.4198 42.6414 59.4663 42.7458C59.5127 42.8502 59.5782 42.9387 59.6628 43.0114C59.7473 43.0841 59.8471 43.1382 59.9621 43.1736C60.077 43.2072 60.1895 43.2239 60.2995 43.2239C60.4282 43.2239 60.5667 43.2099 60.715 43.182C60.8651 43.154 61.0425 43.1065 61.2473 43.0394ZM59.4015 41.9097L60.7109 41.9125C60.7079 41.823 60.7028 41.7569 60.6958 41.714C60.6887 41.6711 60.674 41.6227 60.6517 41.5686C60.6311 41.5127 60.6034 41.4642 60.5684 41.4232C60.5334 41.3803 60.493 41.3449 60.4473 41.3169C60.4016 41.289 60.3486 41.2675 60.2884 41.2526C60.2301 41.2377 60.1673 41.2303 60.1002 41.2303C60.0219 41.2303 59.9458 41.2424 59.872 41.2666C59.8001 41.2908 59.7342 41.3263 59.6742 41.3729C59.6142 41.4195 59.5656 41.4717 59.5284 41.5294C59.4931 41.5872 59.467 41.6432 59.4502 41.6972C59.4333 41.7494 59.4171 41.8203 59.4015 41.9097Z" fill="#2B4872"/>
<path d="M63.0669 44.9604C63.0238 44.6807 62.9899 44.4794 62.9652 44.3564C63.1471 44.4403 63.3173 44.4822 63.4759 44.4822C63.5243 44.4822 63.5736 44.4757 63.6235 44.4626C63.6735 44.4514 63.7195 44.4347 63.7617 44.4123C63.7891 44.3974 63.8164 44.376 63.8434 44.348C63.8723 44.32 63.9106 44.2688 63.9585 44.1942C64.0063 44.1196 64.0476 44.046 64.0825 43.9733C64.1102 43.9118 64.1383 43.8344 64.1669 43.7412L63.527 42.0384L63.0606 40.8304C63.2566 40.8341 63.3975 40.836 63.4833 40.836C63.5822 40.836 63.7117 40.8341 63.872 40.8304C63.9164 40.9851 63.9574 41.1193 63.9948 41.2331L64.2905 42.1111C64.3817 42.3813 64.4474 42.5845 64.4875 42.7206C64.5129 42.8101 64.543 42.9285 64.5779 43.0757C64.6281 42.9061 64.6719 42.7682 64.7093 42.6619C64.7755 42.468 64.8683 42.2089 64.9878 41.8846L65.2365 41.2163C65.2809 41.097 65.326 40.9683 65.3716 40.8304C65.5396 40.8341 65.6675 40.836 65.7551 40.836C65.8353 40.836 65.9695 40.8341 66.1578 40.8304L65.1628 43.2435L64.7318 44.3088C64.6712 44.4468 64.6123 44.554 64.5553 44.6304C64.509 44.6956 64.4577 44.7516 64.4015 44.7982C64.347 44.8429 64.2886 44.8802 64.2262 44.91C64.1473 44.9473 64.0616 44.9771 63.9691 44.9995C63.8635 45.0219 63.7567 45.0331 63.6485 45.0331C63.5869 45.0331 63.5009 45.0275 63.3905 45.0163C63.2801 45.0051 63.1722 44.9864 63.0669 44.9604Z" fill="#2B4872"/>
<path d="M67.893 40.7633C68.1075 40.7633 68.3137 40.7959 68.5118 40.8612C68.7117 40.9245 68.8818 41.0196 69.0223 41.1464C69.1646 41.2713 69.2733 41.4251 69.3486 41.6077C69.4237 41.7886 69.4647 41.9796 69.4716 42.181C69.4788 42.3935 69.4494 42.5985 69.3834 42.7961C69.3174 42.9937 69.2178 43.1652 69.0847 43.3106C68.9516 43.4541 68.7828 43.5623 68.5782 43.635C68.3754 43.7058 68.1575 43.7412 67.9243 43.7412C67.708 43.7412 67.5008 43.7095 67.3028 43.6461C67.1066 43.5809 66.9373 43.484 66.7949 43.3553C66.6525 43.2267 66.5418 43.0701 66.4627 42.8856C66.3856 42.701 66.3436 42.5081 66.3367 42.3068C66.3298 42.1017 66.3557 41.906 66.4147 41.7196C66.4736 41.5332 66.5696 41.3673 66.7027 41.2219C66.8376 41.0765 67.0119 40.9637 67.2256 40.8835C67.4392 40.8034 67.6617 40.7633 67.893 40.7633ZM67.9126 41.3393C67.7503 41.3393 67.6062 41.3794 67.4802 41.4595C67.356 41.5378 67.2649 41.6553 67.2068 41.8119C67.1506 41.9684 67.1256 42.139 67.1319 42.3236C67.1374 42.4857 67.1675 42.6302 67.2222 42.757C67.2787 42.8837 67.3661 42.9863 67.4844 43.0645C67.6046 43.1428 67.7449 43.182 67.9053 43.182C68.0694 43.182 68.2117 43.1419 68.3321 43.0618C68.4542 42.9797 68.5434 42.8604 68.5997 42.7038C68.6577 42.5454 68.6835 42.3711 68.677 42.181C68.6717 42.0262 68.6427 41.8855 68.5899 41.7587C68.5371 41.632 68.4516 41.5304 68.3333 41.454C68.2169 41.3775 68.0767 41.3393 67.9126 41.3393Z" fill="#2B4872"/>
<path d="M72.8909 43.6741C72.7267 43.6704 72.6007 43.6685 72.513 43.6685C72.403 43.6685 72.2781 43.6704 72.1383 43.6741L72.1281 43.2099C72.0786 43.2882 72.035 43.3516 71.9975 43.4001C71.9599 43.4467 71.9102 43.4933 71.8484 43.5399C71.7865 43.5846 71.7187 43.621 71.645 43.6489C71.5713 43.675 71.4863 43.6965 71.3898 43.7133C71.2954 43.7319 71.194 43.7412 71.0858 43.7412C70.8769 43.7412 70.6941 43.7114 70.5372 43.6517C70.3803 43.5902 70.2541 43.498 70.1585 43.3749C70.0648 43.2519 70.014 43.0757 70.0062 42.8464L70.0042 42.7877L70.0244 42.0663L70.0341 41.1156C70.0333 41.0392 70.031 40.9441 70.0272 40.8304C70.2045 40.8341 70.3435 40.836 70.4442 40.836C70.5505 40.836 70.6792 40.8341 70.8301 40.8304L70.7812 42.1055C70.7789 42.2043 70.7771 42.2881 70.7757 42.3571C70.7762 42.4242 70.7769 42.4727 70.7779 42.5025C70.7825 42.6367 70.8059 42.7486 70.8481 42.8381C70.8921 42.9257 70.9643 42.9928 71.0648 43.0394C71.1671 43.086 71.2751 43.1093 71.3889 43.1093C71.4971 43.1093 71.5989 43.0888 71.6945 43.0478C71.7809 43.0105 71.8538 42.9583 71.913 42.8912C71.9742 42.8241 72.0243 42.7337 72.0633 42.62C72.0922 42.5379 72.1126 42.4242 72.1244 42.2788C72.134 42.1763 72.1401 42.0001 72.1428 41.7503C72.1475 41.4484 72.1473 41.1417 72.1423 40.8304C72.3271 40.8341 72.468 40.836 72.565 40.836C72.675 40.836 72.799 40.8341 72.9369 40.8304C72.9236 41.097 72.9116 41.4307 72.901 41.8314C72.8903 42.2304 72.8847 42.5603 72.8843 42.8213C72.8838 43.0804 72.886 43.3647 72.8909 43.6741Z" fill="#2B4872"/>
<path d="M73.582 43.6741L73.6179 42.3459L73.6141 41.5742C73.6124 41.4157 73.6088 41.2564 73.6034 41.096C73.6024 41.0681 73.5976 40.9795 73.5888 40.8304C73.7623 40.8341 73.8902 40.836 73.9722 40.836C74.0674 40.836 74.1932 40.8341 74.3498 40.8304L74.3492 41.2247C74.4166 41.124 74.4747 41.0494 74.5234 41.001C74.5721 40.9506 74.6266 40.9078 74.6869 40.8723C74.7491 40.8369 74.8182 40.8099 74.894 40.7913C74.9698 40.7726 75.0479 40.7633 75.1281 40.7633C75.2027 40.7633 75.2795 40.7726 75.3584 40.7913C75.3643 40.9646 75.3802 41.1846 75.4061 41.4512C75.295 41.4213 75.1947 41.4064 75.1052 41.4064C74.997 41.4064 74.9015 41.4232 74.8187 41.4567C74.7377 41.4884 74.6648 41.5378 74.5999 41.6049C74.5369 41.6702 74.4855 41.7513 74.4459 41.8482C74.4132 41.9265 74.3905 42.0281 74.378 42.153C74.3663 42.2499 74.3589 42.4158 74.3557 42.6507C74.3544 42.8856 74.3576 43.1167 74.3653 43.3442C74.3683 43.4318 74.3748 43.5418 74.3849 43.6741C74.2431 43.6704 74.1134 43.6685 73.9959 43.6685C73.8802 43.6685 73.7423 43.6704 73.582 43.6741Z" fill="#2B4872"/>
<path d="M77.1669 43.621L77.0845 43.0058C77.2698 43.0804 77.4264 43.1326 77.5542 43.1624C77.682 43.1904 77.7991 43.2044 77.9054 43.2044C78.0117 43.2044 78.1008 43.1922 78.1727 43.168C78.2446 43.1419 78.2974 43.1046 78.3312 43.0562C78.3649 43.0058 78.3809 42.9536 78.379 42.8996C78.3782 42.8753 78.3746 42.853 78.3684 42.8325C78.3639 42.812 78.3548 42.7905 78.341 42.7682C78.329 42.7458 78.3143 42.7253 78.2969 42.7066C78.2813 42.6861 78.2591 42.6638 78.2303 42.6395C78.2014 42.6134 78.1602 42.5808 78.1067 42.5417L77.9515 42.4214C77.8021 42.3077 77.6881 42.2182 77.6094 42.153C77.5307 42.0878 77.4641 42.0216 77.4096 41.9545C77.355 41.8855 77.3125 41.8137 77.282 41.7392C77.2533 41.6627 77.2376 41.5854 77.2349 41.5071C77.2303 41.371 77.2669 41.2414 77.3448 41.1184C77.4246 40.9954 77.5427 40.9059 77.6994 40.85C77.856 40.7922 78.0415 40.7633 78.256 40.7633C78.5003 40.7633 78.783 40.7922 79.1039 40.85L79.1601 41.4344C78.9408 41.3468 78.7313 41.303 78.5318 41.303C78.4236 41.303 78.3288 41.3141 78.2475 41.3365C78.168 41.357 78.1113 41.3896 78.0774 41.4344C78.0434 41.4773 78.0273 41.5257 78.0292 41.5798C78.0303 41.6115 78.0369 41.6432 78.0492 41.6748C78.0614 41.7047 78.0821 41.7364 78.1112 41.7699C78.1403 41.8035 78.1731 41.8352 78.2095 41.865C78.2479 41.8948 78.3263 41.9535 78.445 42.0411C78.5636 42.1288 78.667 42.208 78.7552 42.2788C78.8453 42.3497 78.9195 42.4214 78.978 42.4941C79.0363 42.565 79.0818 42.6414 79.1145 42.7234C79.1471 42.8054 79.1648 42.8884 79.1677 42.9723C79.1724 43.1121 79.134 43.2416 79.0522 43.3609C78.9705 43.4802 78.844 43.5734 78.6728 43.6406C78.5017 43.7077 78.3088 43.7412 78.0943 43.7412C77.9824 43.7412 77.8459 43.7319 77.6849 43.7133C77.5239 43.6965 77.3513 43.6657 77.1669 43.621Z" fill="#2B4872"/>
<path d="M79.8966 41.454C79.9182 41.3197 79.9308 41.2256 79.9346 41.1715C79.9402 41.1175 79.9495 41.0355 79.9626 40.9255C80.2142 40.8658 80.4366 40.8239 80.6298 40.7996C80.8229 40.7754 81.01 40.7633 81.1909 40.7633C81.3961 40.7633 81.5853 40.7875 81.7585 40.836C81.9317 40.8826 82.0686 40.9581 82.1691 41.0625C82.2696 41.1669 82.3232 41.3169 82.3299 41.5127C82.3335 41.6189 82.3278 41.8902 82.3128 42.3264C82.2978 42.7607 82.2953 43.2099 82.3055 43.6741C82.1636 43.6704 82.033 43.6685 81.9136 43.6685C81.7999 43.6685 81.6666 43.6704 81.5137 43.6741C81.5303 43.4486 81.541 43.1876 81.5459 42.8912L81.5585 42.1949C81.4892 42.2415 81.4363 42.2742 81.3996 42.2928C81.3629 42.3114 81.3216 42.3292 81.2755 42.3459C81.2294 42.3608 81.1481 42.3851 81.0318 42.4186C80.9153 42.4503 80.8221 42.4783 80.752 42.5025C80.682 42.5267 80.6186 42.5547 80.5619 42.5864C80.5069 42.6162 80.4605 42.6507 80.4227 42.6899C80.3848 42.7271 80.3572 42.7672 80.34 42.8101C80.3247 42.8511 80.3178 42.8958 80.3194 42.9443C80.3221 43.0226 80.3468 43.0906 80.3935 43.1484C80.4421 43.2044 80.5012 43.2435 80.571 43.2659C80.6408 43.2882 80.7223 43.2994 80.8155 43.2994C80.8752 43.2994 80.9375 43.2948 81.0025 43.2854C81.0693 43.2761 81.1581 43.2528 81.2687 43.2155C81.2332 43.3218 81.1929 43.4802 81.1478 43.6909C81.0161 43.7133 80.9112 43.7272 80.8331 43.7328C80.7549 43.7384 80.6823 43.7412 80.6151 43.7412C80.3801 43.7412 80.186 43.7095 80.0328 43.6461C79.8795 43.5828 79.7642 43.4821 79.6867 43.3442C79.6112 43.2062 79.571 43.0673 79.5662 42.9275C79.5635 42.8474 79.5748 42.7682 79.6001 42.6899C79.6254 42.6116 79.664 42.5398 79.7159 42.4746C79.7678 42.4093 79.8356 42.3469 79.9194 42.2872C80.0031 42.2257 80.1251 42.167 80.2855 42.1111C80.4458 42.0533 80.6583 41.9955 80.9231 41.9377C80.9935 41.9228 81.0665 41.9051 81.1423 41.8846C81.218 41.8622 81.2779 41.8408 81.322 41.8203C81.3679 41.7997 81.4071 41.7736 81.4396 41.742C81.472 41.7084 81.4951 41.6739 81.5088 41.6385C81.5244 41.6031 81.5316 41.5667 81.5303 41.5294C81.5278 41.4567 81.5015 41.3952 81.4513 41.3449C81.4029 41.2946 81.3402 41.2601 81.2631 41.2414C81.1878 41.2209 81.1045 41.2107 81.0131 41.2107C80.6736 41.2107 80.3014 41.2918 79.8966 41.454Z" fill="#2B4872"/>
<path d="M83.0106 43.6741C83.0278 43.3591 83.0421 42.7933 83.0535 41.9768C83.0667 41.1585 83.0679 40.452 83.057 39.8573C83.2511 39.8611 83.3892 39.8629 83.4712 39.8629C83.5813 39.8629 83.7155 39.8611 83.8739 39.8573L83.8415 40.8779L83.821 43.154L83.8275 43.6741C83.6744 43.6704 83.5447 43.6685 83.4384 43.6685C83.403 43.6685 83.2604 43.6704 83.0106 43.6741Z" fill="#2B4872"/>
<path d="M87.0486 43.0394C87.0281 43.1494 87.0003 43.347 86.9652 43.6322C86.7652 43.675 86.5965 43.7039 86.459 43.7189C86.3214 43.7338 86.1827 43.7412 86.0429 43.7412C85.7985 43.7412 85.5785 43.717 85.3829 43.6685C85.1891 43.6201 85.0173 43.5315 84.8675 43.4029C84.7175 43.2724 84.6049 43.113 84.5294 42.9247C84.454 42.7365 84.4128 42.5389 84.4058 42.3319C84.398 42.1027 84.4305 41.8808 84.5034 41.6665C84.5763 41.4502 84.6822 41.2741 84.8212 41.138C84.962 41 85.1237 40.9031 85.3065 40.8472C85.4892 40.7894 85.6813 40.7605 85.8827 40.7605C86.0729 40.7605 86.2547 40.7847 86.4279 40.8332C86.6011 40.8798 86.7474 40.9572 86.8667 41.0653C86.9879 41.1734 87.0818 41.3039 87.1486 41.4567C87.2172 41.6077 87.2546 41.7764 87.2609 41.9629C87.2639 42.0505 87.2577 42.1409 87.2422 42.2341L85.1915 42.2369C85.1901 42.3059 85.1901 42.3608 85.1915 42.4019C85.1958 42.5267 85.2211 42.6414 85.2676 42.7458C85.314 42.8502 85.3795 42.9387 85.4641 43.0114C85.5486 43.0841 85.6484 43.1382 85.7633 43.1736C85.8783 43.2072 85.9907 43.2239 86.1008 43.2239C86.2295 43.2239 86.368 43.2099 86.5162 43.182C86.6664 43.154 86.8438 43.1065 87.0486 43.0394ZM85.2028 41.9097L86.5122 41.9125C86.5092 41.823 86.5041 41.7569 86.4971 41.714C86.49 41.6711 86.4753 41.6227 86.453 41.5686C86.4324 41.5127 86.4046 41.4642 86.3697 41.4232C86.3346 41.3803 86.2943 41.3449 86.2486 41.3169C86.2028 41.289 86.1499 41.2675 86.0897 41.2526C86.0314 41.2377 85.9686 41.2303 85.9015 41.2303C85.8231 41.2303 85.7471 41.2424 85.6733 41.2666C85.6014 41.2908 85.5354 41.3263 85.4755 41.3729C85.4155 41.4195 85.3669 41.4717 85.3297 41.5294C85.2944 41.5872 85.2683 41.6432 85.2515 41.6972C85.2346 41.7494 85.2184 41.8203 85.2028 41.9097Z" fill="#2B4872"/>
<path d="M87.6643 43.621L87.5818 43.0058C87.7671 43.0804 87.9237 43.1326 88.0516 43.1624C88.1793 43.1904 88.2964 43.2044 88.4027 43.2044C88.509 43.2044 88.5981 43.1922 88.6701 43.168C88.7419 43.1419 88.7947 43.1046 88.8285 43.0562C88.8623 43.0058 88.8782 42.9536 88.8764 42.8996C88.8755 42.8753 88.872 42.853 88.8657 42.8325C88.8613 42.812 88.8521 42.7905 88.8383 42.7682C88.8264 42.7458 88.8117 42.7253 88.7943 42.7066C88.7786 42.6861 88.7564 42.6638 88.7276 42.6395C88.6988 42.6134 88.6575 42.5808 88.604 42.5417L88.4488 42.4214C88.2995 42.3077 88.1854 42.2182 88.1068 42.153C88.0281 42.0878 87.9615 42.0216 87.907 41.9545C87.8524 41.8855 87.8098 41.8137 87.7793 41.7392C87.7506 41.6627 87.7349 41.5854 87.7323 41.5071C87.7276 41.371 87.7643 41.2414 87.8421 41.1184C87.9219 40.9954 88.0401 40.9059 88.1967 40.85C88.3533 40.7922 88.5388 40.7633 88.7533 40.7633C88.9977 40.7633 89.2803 40.7922 89.6012 40.85L89.6575 41.4344C89.4381 41.3468 89.2287 41.303 89.0291 41.303C88.9209 41.303 88.8262 41.3141 88.7448 41.3365C88.6653 41.357 88.6086 41.3896 88.5747 41.4344C88.5407 41.4773 88.5247 41.5257 88.5265 41.5798C88.5276 41.6115 88.5343 41.6432 88.5465 41.6748C88.5587 41.7047 88.5794 41.7364 88.6085 41.7699C88.6376 41.8035 88.6704 41.8352 88.7069 41.865C88.7452 41.8948 88.8237 41.9535 88.9423 42.0411C89.0609 42.1288 89.1643 42.208 89.2525 42.2788C89.3426 42.3497 89.4169 42.4214 89.4753 42.4941C89.5337 42.565 89.5792 42.6414 89.6118 42.7234C89.6444 42.8054 89.6622 42.8884 89.665 42.9723C89.6698 43.1121 89.6313 43.2416 89.5495 43.3609C89.4678 43.4802 89.3413 43.5734 89.1702 43.6406C88.999 43.7077 88.8061 43.7412 88.5916 43.7412C88.4797 43.7412 88.3433 43.7319 88.1822 43.7133C88.0212 43.6965 87.8486 43.6657 87.6643 43.621Z" fill="#2B4872"/>
<path d="M91.79 43.6741L91.8079 43.2127L91.83 41.3952H91.4831C91.4868 41.3393 91.4893 41.2489 91.4907 41.124C91.4938 40.9972 91.4953 40.905 91.4952 40.8472H91.8757L91.8719 40.7353C91.8651 40.5359 91.8684 40.384 91.8816 40.2796C91.8948 40.1733 91.9226 40.0866 91.9651 40.0195C92.0094 39.9524 92.0718 39.8946 92.1522 39.8462C92.2344 39.7958 92.3247 39.7623 92.423 39.7455C92.5212 39.7268 92.6225 39.7175 92.727 39.7175C92.9396 39.7175 93.1654 39.7474 93.4043 39.807C93.417 40.0158 93.4333 40.1947 93.4533 40.3439C93.2721 40.2805 93.1078 40.2488 92.9605 40.2488C92.9027 40.2488 92.8498 40.2563 92.8018 40.2712C92.7537 40.2842 92.7143 40.3029 92.6834 40.3271C92.6544 40.3513 92.6303 40.383 92.6111 40.4222C92.5919 40.4613 92.5795 40.5079 92.5739 40.562C92.5682 40.6142 92.5665 40.6748 92.5689 40.7437L92.5724 40.8472H93.2858C93.279 40.9758 93.274 41.1585 93.2709 41.3952H92.5994C92.5892 42.1371 92.588 42.8968 92.5958 43.6741C92.4259 43.6704 92.2907 43.6685 92.1899 43.6685C92.0874 43.6685 91.9541 43.6704 91.79 43.6741Z" fill="#2B4872"/>
<path d="M93.659 43.6741C93.6762 43.3591 93.6906 42.7933 93.702 41.9768C93.7151 41.1585 93.7163 40.452 93.7054 39.8573C93.8995 39.8611 94.0376 39.8629 94.1196 39.8629C94.2297 39.8629 94.3639 39.8611 94.5223 39.8573L94.4899 40.8779L94.4694 43.154L94.4759 43.6741C94.3229 43.6704 94.1932 43.6685 94.0868 43.6685C94.0514 43.6685 93.9088 43.6704 93.659 43.6741Z" fill="#2B4872"/>
<path d="M96.6095 40.7633C96.824 40.7633 97.0303 40.7959 97.2284 40.8612C97.4283 40.9245 97.5984 41.0196 97.7389 41.1464C97.8812 41.2713 97.9899 41.4251 98.0651 41.6077C98.1403 41.7886 98.1813 41.9796 98.1882 42.181C98.1954 42.3935 98.166 42.5985 98.1 42.7961C98.034 42.9937 97.9344 43.1652 97.8013 43.3106C97.6682 43.4541 97.4993 43.5623 97.2948 43.635C97.092 43.7058 96.8741 43.7412 96.6409 43.7412C96.4245 43.7412 96.2174 43.7095 96.0194 43.6461C95.8232 43.5809 95.6539 43.484 95.5115 43.3553C95.3691 43.2267 95.2583 43.0701 95.1793 42.8856C95.1022 42.701 95.0602 42.5081 95.0533 42.3068C95.0463 42.1017 95.0723 41.906 95.1313 41.7196C95.1902 41.5332 95.2862 41.3673 95.4193 41.2219C95.5542 41.0765 95.7285 40.9637 95.9422 40.8835C96.1558 40.8034 96.3783 40.7633 96.6095 40.7633ZM96.6291 41.3393C96.4669 41.3393 96.3227 41.3794 96.1968 41.4595C96.0726 41.5378 95.9815 41.6553 95.9234 41.8119C95.8672 41.9684 95.8422 42.139 95.8485 42.3236C95.854 42.4857 95.8841 42.6302 95.9387 42.757C95.9953 42.8837 96.0827 42.9863 96.201 43.0645C96.3212 43.1428 96.4615 43.182 96.6219 43.182C96.786 43.182 96.9283 43.1419 97.0487 43.0618C97.1708 42.9797 97.26 42.8604 97.3163 42.7038C97.3743 42.5454 97.4001 42.3711 97.3936 42.181C97.3883 42.0262 97.3593 41.8855 97.3065 41.7587C97.2537 41.632 97.1681 41.5304 97.0499 41.454C96.9335 41.3775 96.7933 41.3393 96.6291 41.3393Z" fill="#2B4872"/>
<path d="M98.8601 41.454C98.8816 41.3197 98.8943 41.2256 98.898 41.1715C98.9037 41.1175 98.913 41.0355 98.926 40.9255C99.1777 40.8658 99.4001 40.8239 99.5932 40.7996C99.7864 40.7754 99.9734 40.7633 100.154 40.7633C100.36 40.7633 100.549 40.7875 100.722 40.836C100.895 40.8826 101.032 40.9581 101.133 41.0625C101.233 41.1669 101.287 41.3169 101.293 41.5127C101.297 41.6189 101.291 41.8902 101.276 42.3264C101.261 42.7607 101.259 43.2099 101.269 43.6741C101.127 43.6704 100.996 43.6685 100.877 43.6685C100.763 43.6685 100.63 43.6704 100.477 43.6741C100.494 43.4486 100.504 43.1876 100.509 42.8912L100.522 42.1949C100.453 42.2415 100.4 42.2742 100.363 42.2928C100.326 42.3114 100.285 42.3292 100.239 42.3459C100.193 42.3608 100.112 42.3851 99.9952 42.4186C99.8788 42.4503 99.7856 42.4783 99.7155 42.5025C99.6455 42.5267 99.5821 42.5547 99.5253 42.5864C99.4704 42.6162 99.424 42.6507 99.3862 42.6899C99.3482 42.7271 99.3207 42.7672 99.3035 42.8101C99.2881 42.8511 99.2812 42.8958 99.2829 42.9443C99.2856 43.0226 99.3103 43.0906 99.357 43.1484C99.4055 43.2044 99.4647 43.2435 99.5344 43.2659C99.6042 43.2882 99.6857 43.2994 99.779 43.2994C99.8387 43.2994 99.901 43.2948 99.966 43.2854C100.033 43.2761 100.122 43.2528 100.232 43.2155C100.197 43.3218 100.156 43.4802 100.111 43.6909C99.9796 43.7133 99.8747 43.7272 99.7965 43.7328C99.7184 43.7384 99.6457 43.7412 99.5786 43.7412C99.3436 43.7412 99.1495 43.7095 98.9962 43.6461C98.843 43.5828 98.7276 43.4821 98.6502 43.3442C98.5746 43.2062 98.5345 43.0673 98.5297 42.9275C98.527 42.8474 98.5383 42.7682 98.5636 42.6899C98.5889 42.6116 98.6275 42.5398 98.6794 42.4746C98.7312 42.4093 98.7991 42.3469 98.8828 42.2872C98.9665 42.2257 99.0886 42.167 99.2489 42.1111C99.4093 42.0533 99.6218 41.9955 99.8865 41.9377C99.9569 41.9228 100.03 41.9051 100.106 41.8846C100.181 41.8622 100.241 41.8408 100.285 41.8203C100.331 41.7997 100.371 41.7736 100.403 41.742C100.436 41.7084 100.459 41.6739 100.472 41.6385C100.488 41.6031 100.495 41.5667 100.494 41.5294C100.491 41.4567 100.465 41.3952 100.415 41.3449C100.366 41.2946 100.304 41.2601 100.227 41.2414C100.151 41.2209 100.068 41.2107 99.9765 41.2107C99.6371 41.2107 99.2649 41.2918 98.8601 41.454Z" fill="#2B4872"/>
<path d="M103.697 43.0897C103.678 43.1922 103.649 43.3824 103.61 43.6601C103.455 43.6955 103.332 43.7179 103.243 43.7272C103.154 43.7366 103.07 43.7412 102.992 43.7412C102.854 43.7412 102.729 43.7282 102.618 43.7021C102.509 43.676 102.418 43.6303 102.345 43.5651C102.272 43.498 102.221 43.4206 102.192 43.333C102.165 43.2435 102.149 43.1512 102.146 43.0562C102.145 43.0319 102.145 42.9993 102.146 42.9583C102.146 42.9173 102.149 42.7849 102.154 42.5612L102.179 41.398H101.776C101.782 41.2862 101.784 41.1063 101.783 40.8584H102.206C102.213 40.7502 102.218 40.5666 102.22 40.3075L102.548 40.2432C102.617 40.2302 102.749 40.1994 102.945 40.1509C102.941 40.4026 102.941 40.6384 102.947 40.8584H103.658C103.653 41.11 103.653 41.2899 103.656 41.398H102.943C102.93 42.1567 102.925 42.5957 102.929 42.715C102.933 42.8306 102.948 42.9201 102.975 42.9835C103.003 43.0468 103.045 43.0925 103.102 43.1205C103.159 43.1484 103.219 43.1624 103.283 43.1624C103.329 43.1624 103.378 43.1587 103.428 43.1512C103.48 43.1438 103.57 43.1233 103.697 43.0897Z" fill="#2B4872"/>
</svg>
